<svg width="160" height="37" viewBox="0 0 160 37" fill="none" xmlns="http://www.w3.org/2000/svg">
<g clip-path="url(#clip0_265_1305)">
<path d="M59.199 14.5988V20.0739C58.4321 20.3545 56.9305 20.7 55.5591 20.7C52.8335 20.7 51.3489 19.6615 51.3489 17.7638V17.7465C51.3489 15.8834 52.8015 14.8276 55.4459 14.8276C56.1145 14.8276 57.1099 14.9269 58.0733 15.0586V14.629C58.0733 13.1609 57.2253 12.2542 55.07 12.2542C54.1557 12.2542 52.998 12.4528 52.0667 12.9148L52.2632 11.8591C53.0962 11.4467 54.2219 11.233 55.3306 11.233C57.8597 11.233 59.199 12.3708 59.199 14.5988ZM58.0733 19.2664V16.1165C57.7635 16.0496 56.3751 15.8682 55.5442 15.8682C53.5042 15.8682 52.5088 16.4792 52.5088 17.7314C52.5088 18.9836 53.5042 19.6442 55.5442 19.6442C56.2469 19.6442 57.3726 19.4953 58.0733 19.2643V19.2664Z" fill="#1E1F28"/>
<path d="M73.3483 11.4985L70.8833 20.538H69.4137L67.0319 12.6212L64.6331 20.538H63.1806L60.6836 11.4985H61.8904L63.9795 19.301L66.3292 11.4985H67.7155L70.0652 19.2664L72.1542 11.4985H73.3462H73.3483Z" fill="#1E1F28"/>
<path d="M82.6808 11.7619V24.1823H81.538V20.5532C80.8352 20.7021 80.1025 20.7842 79.466 20.7842C76.2683 20.7842 74.4078 18.9361 74.4078 16.0496V16.0323C74.4078 13.0314 76.4306 11.315 79.466 11.315C80.3802 11.315 81.4739 11.4791 82.4693 11.7598H82.6808V11.7619ZM81.5401 19.4974V12.6514C80.7241 12.4528 80.0555 12.3708 79.419 12.3708C76.9219 12.3708 75.5185 13.8561 75.5185 16.0323V16.0496C75.5185 18.3748 77.0522 19.7284 79.419 19.7284C80.0385 19.7284 80.8395 19.6615 81.5401 19.4974Z" fill="#1E1F28"/>
<path d="M92.8634 14.5988V20.0739C92.0966 20.3545 90.5949 20.7 89.2236 20.7C86.4979 20.7 85.0134 19.6615 85.0134 17.7638V17.7465C85.0134 15.8834 86.4659 14.8276 89.1103 14.8276C89.7789 14.8276 90.7743 14.9269 91.7377 15.0586V14.629C91.7377 13.1609 90.8897 12.2542 88.7344 12.2542C87.8202 12.2542 86.6624 12.4528 85.7311 12.9148L85.9276 11.8591C86.7607 11.4467 87.8864 11.233 88.995 11.233C91.5241 11.233 92.8634 12.3708 92.8634 14.5988ZM91.7377 19.2664V16.1165C91.428 16.0496 90.0395 15.8682 89.2086 15.8682C87.1687 15.8682 86.1733 16.4792 86.1733 17.7314C86.1733 18.9836 87.1687 19.6442 89.2086 19.6442C89.9114 19.6442 91.0371 19.4953 91.7377 19.2643V19.2664Z" fill="#1E1F28"/>
<path d="M96.7639 12.5866H94.9525V11.4985H96.7639V10.1622C96.7639 7.78731 97.9216 7.16122 100.175 7.16122H101.596V8.15002H100.224C98.6906 8.15002 97.9067 8.69407 97.9067 10.3759V11.4964H101.561V12.5845H97.9067V20.5337H96.7639V12.5845V12.5866Z" fill="#1E1F28"/>
<path d="M106.098 15.9848V15.9676C106.131 13.1307 107.976 11.2503 110.717 11.2503C111.825 11.2503 112.823 11.464 113.686 11.8936L113.229 12.8673C112.479 12.4873 111.678 12.3233 110.732 12.3233C108.643 12.3233 107.271 13.759 107.239 15.9676V15.9848C107.271 18.1956 108.643 19.6464 110.749 19.6464C111.678 19.6464 112.528 19.465 113.229 19.0851L113.686 20.0588C112.821 20.4884 111.825 20.7194 110.717 20.7194C107.927 20.7194 106.131 18.8562 106.098 15.9848Z" fill="#1E1F28"/>
<path d="M122.875 14.5988V20.0739C122.108 20.3545 120.607 20.7 119.235 20.7C116.51 20.7 115.025 19.6615 115.025 17.7638V17.7465C115.025 15.8834 116.478 14.8276 119.122 14.8276C119.791 14.8276 120.786 14.9269 121.749 15.0586V14.629C121.749 13.1609 120.901 12.2542 118.746 12.2542C117.832 12.2542 116.674 12.4528 115.743 12.9148L115.939 11.8591C116.772 11.4467 117.898 11.233 119.007 11.233C121.536 11.233 122.875 12.3708 122.875 14.5988ZM121.749 19.2664V16.1165C121.44 16.0496 120.051 15.8682 119.22 15.8682C117.18 15.8682 116.185 16.4792 116.185 17.7314C116.185 18.9836 117.18 19.6442 119.22 19.6442C119.923 19.6442 121.049 19.4953 121.749 19.2643V19.2664Z" fill="#1E1F28"/>
<path d="M134.216 16.0345V16.0518C134.216 18.9383 132.355 20.7863 129.157 20.7863C128.521 20.7863 127.786 20.7043 127.085 20.5553V24.1845H125.943V11.7641H126.154C127.149 11.4834 128.243 11.3193 129.157 11.3193C132.193 11.3193 134.216 13.0357 134.216 16.0366V16.0345ZM133.107 16.0345C133.107 13.8583 131.704 12.3729 129.206 12.3729C128.57 12.3729 127.901 12.455 127.085 12.6536V19.4996C127.788 19.6637 128.587 19.7306 129.206 19.7306C131.573 19.7306 133.107 18.3791 133.107 16.0518V16.0345Z" fill="#1E1F28"/>
<path d="M136.157 9.2554C136.157 8.71134 136.597 8.33137 137.136 8.33137C137.674 8.33137 138.099 8.71134 138.099 9.2554C138.099 9.84911 137.642 10.1794 137.136 10.1794C136.629 10.1794 136.157 9.84911 136.157 9.2554ZM136.565 11.4985H137.708V20.538H136.565V11.4985Z" fill="#1E1F28"/>
<path d="M141.559 17.7163V12.5543H139.748V11.4985H141.559V8.16729H142.685V11.4985H146.34V12.5543H142.685V17.3709C142.685 19.0203 143.484 19.465 144.986 19.465H146.357V20.538H144.644C142.245 20.538 141.559 19.5816 141.559 17.7185V17.7163Z" fill="#1E1F28"/>
<path d="M155.79 14.5988V20.0739C155.023 20.3545 153.521 20.7 152.15 20.7C149.424 20.7 147.94 19.6615 147.94 17.7638V17.7465C147.94 15.8834 149.392 14.8276 152.037 14.8276C152.705 14.8276 153.701 14.9269 154.664 15.0586V14.629C154.664 13.1609 153.816 12.2542 151.661 12.2542C150.747 12.2542 149.589 12.4528 148.658 12.9148L148.854 11.8591C149.687 11.4467 150.813 11.233 151.921 11.233C154.451 11.233 155.79 12.3708 155.79 14.5988ZM154.664 19.2664V16.1165C154.354 16.0496 152.966 15.8682 152.135 15.8682C150.095 15.8682 149.1 16.4792 149.1 17.7314C149.1 18.9836 150.095 19.6442 152.135 19.6442C152.838 19.6442 153.963 19.4953 154.664 19.2643V19.2664Z" fill="#1E1F28"/>
<path d="M158.857 7.15906H160V20.5359H158.857V7.15906Z" fill="#1E1F28"/>
<path d="M89.1958 27.628C89.3133 27.628 89.4137 27.5892 89.4927 27.5114C89.5718 27.4337 89.6124 27.3322 89.6124 27.207C89.6124 27.0818 89.5718 26.9803 89.4927 26.9026C89.4137 26.8249 89.3133 26.786 89.1958 26.786C89.0783 26.786 88.9779 26.8249 88.8989 26.9026C88.8198 26.9803 88.7793 27.0818 88.7793 27.207C88.7793 27.3322 88.8198 27.4337 88.8989 27.5114C88.9779 27.5892 89.0783 27.628 89.1958 27.628Z" fill="#1E1F28"/>
<path d="M88.1855 27.7684C88.3029 27.7684 88.4033 27.7295 88.4824 27.6518C88.5614 27.574 88.602 27.4726 88.602 27.3474C88.602 27.2221 88.5614 27.1207 88.4824 27.0429C88.4033 26.9652 88.3029 26.9264 88.1855 26.9264C88.068 26.9264 87.9676 26.9652 87.8885 27.0429C87.8095 27.1207 87.7689 27.2221 87.7689 27.3474C87.7689 27.4726 87.8095 27.574 87.8885 27.6518C87.9676 27.7295 88.068 27.7684 88.1855 27.7684Z" fill="#1E1F28"/>
<path d="M90.1528 33.2629C90.0353 33.2629 89.9349 33.3017 89.8558 33.3795C89.7768 33.4572 89.7362 33.5586 89.7362 33.6839C89.7362 33.8091 89.7768 33.9106 89.8558 33.9883C89.9349 34.066 90.0353 34.1049 90.1528 34.1049C90.2703 34.1049 90.3707 34.066 90.4497 33.9883C90.5287 33.9106 90.5693 33.8091 90.5693 33.6839C90.5693 33.5586 90.5287 33.4572 90.4497 33.3795C90.3707 33.3017 90.2703 33.2629 90.1528 33.2629Z" fill="#1E1F28"/>
<path d="M91.1631 33.1225C91.0435 33.1225 90.9452 33.1614 90.8662 33.2391C90.785 33.3168 90.7466 33.4183 90.7466 33.5435C90.7466 33.6687 90.7872 33.7702 90.8662 33.8479C90.9452 33.9257 91.0456 33.9645 91.1631 33.9645C91.2806 33.9645 91.381 33.9257 91.4601 33.8479C91.5391 33.7702 91.5797 33.6687 91.5797 33.5435C91.5797 33.4183 91.5391 33.3168 91.4601 33.2391C91.381 33.1614 91.2806 33.1225 91.1631 33.1225Z" fill="#1E1F28"/>
<path d="M93.1924 33.2326C93.0728 33.2326 92.9745 33.2715 92.8955 33.3492C92.8164 33.427 92.7758 33.5284 92.7758 33.6536C92.7758 33.7789 92.8164 33.8803 92.8955 33.958C92.9745 34.0358 93.0749 34.0746 93.1924 34.0746C93.3099 34.0746 93.4103 34.0358 93.4893 33.958C93.5684 33.8803 93.6089 33.7789 93.6089 33.6536C93.6089 33.5284 93.5684 33.427 93.4893 33.3492C93.4103 33.2715 93.3099 33.2326 93.1924 33.2326Z" fill="#1E1F28"/>
<path d="M93.7285 31.4062C93.7264 31.2702 93.7242 31.1514 93.7242 31.0478V28.4571H93.6623L93.0129 28.5499V31.1406C93.0129 31.3025 93.0236 31.4494 93.0428 31.5811C93.0514 31.635 93.0599 31.6825 93.0685 31.7257H91.3853V28.4549H91.3233L90.6739 28.5477V31.1385C90.6739 31.3004 90.6846 31.4472 90.706 31.5789C90.7145 31.6329 90.7231 31.6804 90.7316 31.7235H89.8622H89.0548V28.4527H88.9929L88.3435 28.5456V31.1363C88.3435 31.2982 88.3542 31.445 88.3734 31.5767C88.3819 31.6307 88.3905 31.6782 88.399 31.7214H87.363H86.7244V27.6712C86.7244 27.5676 86.7244 27.4424 86.7286 27.2955C86.7308 27.1509 86.7372 27.0062 86.7436 26.8659C86.7521 26.7256 86.7649 26.609 86.7863 26.514V26.4514L86.013 26.5442V32.382H89.7063H92.3721H92.5302C92.8549 32.382 92.9659 32.3669 93.2009 32.3345C93.4359 32.3043 93.6303 32.2568 93.7841 32.1942V32.1316C93.7627 32.0387 93.7499 31.9265 93.7413 31.7969C93.7328 31.6674 93.7285 31.5336 93.7264 31.3997L93.7285 31.4062Z" fill="#1E1F28"/>
<path d="M104.351 29.6769C104.221 29.4934 104.091 29.3401 103.96 29.2213H103.868C103.715 29.2623 103.529 29.2883 103.317 29.299C103.104 29.3098 102.897 29.3142 102.696 29.3142H97.6717L99.9851 27.0969L99.6689 26.6133H99.607L96.734 29.407C96.7447 29.6315 96.8002 29.7805 96.9049 29.8604C97.0074 29.9381 97.1163 29.977 97.2295 29.977H102.696C102.882 29.977 103.031 29.9748 103.144 29.9683C103.258 29.964 103.366 29.9532 103.473 29.9403C103.529 29.9338 103.595 29.923 103.666 29.91C103.785 30.0525 103.883 30.2058 103.956 30.372C104.065 30.616 104.118 30.8384 104.118 31.0348C104.118 31.2961 104.041 31.4753 103.89 31.5724C103.738 31.6717 103.507 31.7214 103.198 31.7214H95.5848C95.5848 31.7214 95.5848 27.4963 95.589 27.2955C95.5912 27.1509 95.5976 27.0062 95.604 26.8659C95.6125 26.7256 95.6254 26.609 95.6467 26.514V26.4514L94.8735 26.5442V32.382H103.035C103.36 32.382 103.636 32.3475 103.862 32.2806C104.088 32.2136 104.274 32.1165 104.417 31.9869C104.563 31.8596 104.665 31.7106 104.729 31.5422C104.793 31.3738 104.825 31.1881 104.825 30.9852C104.825 30.7412 104.778 30.5059 104.687 30.2835C104.595 30.059 104.481 29.8561 104.351 29.6704V29.6769Z" fill="#1E1F28"/>
<path d="M84.1547 31.3846L84.191 31.7322C83.8407 31.7214 80.5703 31.7084 80.2542 31.6739C79.9381 31.6393 79.6561 31.5875 79.4083 31.5141C79.3507 31.4925 79.2716 31.4666 79.1691 31.4364C79.0666 31.4062 78.964 31.3716 78.8594 31.3349C78.7568 31.2982 78.6778 31.268 78.6201 31.2421H78.5582L78.4193 31.8747C78.4855 31.9049 78.5603 31.9351 78.6393 31.9632C78.7184 31.9912 78.806 32.0215 78.8978 32.0495C78.9897 32.0776 79.0858 32.1078 79.184 32.1402C79.6625 32.2719 80.1645 32.3496 80.6921 32.3755C80.9548 32.3863 83.093 32.4403 84.1376 32.3907H84.8638V27.6777C84.8638 27.574 84.8638 27.4488 84.8681 27.302C84.8703 27.1574 84.8767 27.0127 84.8831 26.8724C84.8916 26.7321 84.9044 26.6155 84.9258 26.5205V26.4579L84.1525 26.5507V31.3846H84.1547Z" fill="#1E1F28"/>
<path d="M115.501 27.6151C115.619 27.6151 115.719 27.5762 115.798 27.4985C115.877 27.4208 115.918 27.3193 115.918 27.1941C115.918 27.0689 115.877 26.9674 115.798 26.8897C115.719 26.8119 115.619 26.7731 115.501 26.7731C115.384 26.7731 115.284 26.8119 115.205 26.8897C115.126 26.9674 115.085 27.0689 115.085 27.1941C115.085 27.3193 115.126 27.4208 115.205 27.4985C115.284 27.5762 115.384 27.6151 115.501 27.6151Z" fill="#1E1F28"/>
<path d="M116.255 28.4139C116.042 28.3793 115.822 28.3642 115.595 28.3642C115.164 28.3642 114.792 28.4441 114.483 28.6017C114.173 28.7615 113.938 28.9774 113.771 29.2537C113.607 29.5301 113.523 29.8474 113.523 30.2058C113.523 30.5642 113.62 30.8967 113.81 31.186C113.951 31.3997 114.119 31.5811 114.312 31.7279C114.312 31.7279 110.64 31.7235 110.289 31.7171C109.939 31.7084 109.606 31.689 109.29 31.6545C108.974 31.6199 108.692 31.5681 108.444 31.4947C108.386 31.4731 108.307 31.4472 108.205 31.417C108.102 31.3867 108 31.3522 107.895 31.3155C107.792 31.2788 107.711 31.2486 107.656 31.2227H107.594L107.455 31.8552C107.521 31.8855 107.596 31.9157 107.675 31.9459C107.754 31.974 107.842 32.0042 107.933 32.0323C108.025 32.0603 108.121 32.0906 108.22 32.1229C108.709 32.259 109.224 32.3367 109.764 32.3604C110.304 32.3842 110.832 32.395 111.347 32.395H115.561C115.886 32.395 116.166 32.3799 116.399 32.3475C116.634 32.3173 116.828 32.2698 116.982 32.2071L117.012 32.1445V29.9273C117.012 29.8237 117.012 29.6898 117.016 29.5301C117.018 29.3681 117.024 29.2105 117.031 29.0529C117.039 28.8975 117.052 28.7723 117.074 28.6773L117.044 28.6147C116.73 28.5153 116.465 28.4506 116.251 28.416L116.255 28.4139ZM115.305 31.5508C114.957 31.4127 114.692 31.2205 114.51 30.9744C114.327 30.7283 114.237 30.4519 114.237 30.1518C114.237 29.8086 114.354 29.5279 114.589 29.312C114.824 29.0961 115.14 28.9882 115.542 28.9882C115.707 28.9882 115.839 28.9968 115.939 29.0119C116.04 29.027 116.132 29.0486 116.213 29.0745C116.253 29.0875 116.294 29.1004 116.339 29.1134C116.332 29.1587 116.326 29.2084 116.322 29.2623C116.311 29.3768 116.307 29.5041 116.307 29.6445V31.7235C115.924 31.7192 115.591 31.6652 115.307 31.553L115.305 31.5508Z" fill="#1E1F28"/>
<path d="M125.94 28.4139C125.727 28.3793 125.507 28.3642 125.28 28.3642C124.849 28.3642 124.477 28.4441 124.167 28.6017C123.858 28.7615 123.623 28.9774 123.456 29.2537C123.292 29.5301 123.208 29.8474 123.208 30.2058C123.208 30.5642 123.305 30.8967 123.495 31.186C123.636 31.3997 123.804 31.581 123.997 31.7279H118.926H118.872V27.6777C118.872 27.574 118.872 27.4488 118.876 27.302C118.879 27.1574 118.885 27.0127 118.891 26.8724C118.9 26.7321 118.913 26.6155 118.934 26.5205V26.4579L118.161 26.5507V32.3885H125.246C125.571 32.3885 125.851 32.3734 126.084 32.341C126.319 32.3108 126.513 32.2633 126.667 32.2007L126.697 32.1381V29.9208C126.697 29.8172 126.697 29.6833 126.701 29.5236C126.703 29.3617 126.709 29.204 126.716 29.0464C126.724 28.891 126.737 28.7658 126.759 28.6708L126.729 28.6082C126.415 28.5089 126.15 28.4441 125.936 28.4096L125.94 28.4139ZM124.99 31.5508C124.642 31.4127 124.377 31.2205 124.195 30.9744C124.012 30.7283 123.922 30.4519 123.922 30.1518C123.922 29.8086 124.039 29.5279 124.274 29.312C124.509 29.0961 124.825 28.9882 125.227 28.9882C125.391 28.9882 125.524 28.9968 125.624 29.0119C125.725 29.027 125.817 29.0486 125.898 29.0745C125.936 29.0875 125.979 29.1004 126.024 29.1134C126.017 29.1587 126.011 29.2084 126.007 29.2623C125.996 29.3768 125.992 29.5041 125.992 29.6445V31.7235C125.609 31.7192 125.276 31.6652 124.992 31.553L124.99 31.5508Z" fill="#1E1F28"/>
<path d="M124.778 27.6302C124.896 27.6302 124.996 27.5913 125.075 27.5136C125.154 27.4359 125.195 27.3344 125.195 27.2092C125.195 27.084 125.154 26.9825 125.075 26.9048C124.996 26.8271 124.896 26.7882 124.778 26.7882C124.661 26.7882 124.561 26.8271 124.482 26.9048C124.402 26.9825 124.362 27.084 124.362 27.2092C124.362 27.3344 124.402 27.4359 124.482 27.5136C124.561 27.5913 124.661 27.6302 124.778 27.6302Z" fill="#1E1F28"/>
<path d="M125.789 27.4899C125.906 27.4899 126.007 27.451 126.086 27.3733C126.165 27.2955 126.205 27.1941 126.205 27.0689C126.205 26.9436 126.165 26.8422 126.086 26.7644C126.007 26.6867 125.906 26.6479 125.789 26.6479C125.671 26.6479 125.571 26.6867 125.492 26.7644C125.413 26.8422 125.372 26.9436 125.372 27.0689C125.372 27.1941 125.413 27.2955 125.492 27.3733C125.571 27.451 125.671 27.4899 125.789 27.4899Z" fill="#1E1F28"/>
<path d="M131.565 31.119C131.565 31.119 131.565 31.0996 131.565 31.0888C131.556 30.7822 131.503 30.4908 131.403 30.2166C131.291 29.9165 131.142 29.6531 130.952 29.4199C130.762 29.1889 130.546 29.0054 130.307 28.8737C130.067 28.742 129.82 28.6751 129.561 28.6751C129.345 28.6751 129.13 28.7269 128.912 28.8262C128.696 28.9277 128.499 29.068 128.32 29.2472C128.143 29.4264 128.002 29.6358 127.895 29.8712C127.79 30.1087 127.737 30.3634 127.737 30.6398C127.737 31.0348 127.833 31.363 128.023 31.6221C128.213 31.8833 128.465 32.0754 128.779 32.1985C129.093 32.3237 129.435 32.3863 129.807 32.3863C129.956 32.3863 130.132 32.3755 130.332 32.3561C130.495 32.3388 130.651 32.3043 130.802 32.2611V32.2654C130.802 32.2827 130.798 32.3021 130.796 32.3216C130.757 32.5893 130.695 32.8419 130.608 33.0794C130.582 33.1377 130.557 33.1895 130.531 33.224C130.386 33.414 129.315 34.3229 129.281 34.3423L129.275 34.4244L129.595 34.908C129.595 34.908 129.531 34.962 130.762 33.9213C131.287 33.4766 131.567 32.5936 131.567 31.2291C131.567 31.2076 131.567 31.1881 131.567 31.1665C131.567 31.1493 131.567 31.132 131.565 31.1126V31.119ZM130.439 31.6955C130.253 31.7171 130.095 31.7257 129.961 31.7257C129.647 31.7257 129.377 31.6825 129.151 31.594C128.925 31.5055 128.752 31.3803 128.63 31.2162C128.508 31.0521 128.448 30.8556 128.448 30.6268C128.448 30.3245 128.551 30.0266 128.754 29.733C128.907 29.5128 129.127 29.3293 129.414 29.1825C129.647 29.2515 129.847 29.3487 130.016 29.4782C130.217 29.6337 130.379 29.8172 130.503 30.0245C130.627 30.2317 130.717 30.4519 130.772 30.6829C130.83 30.9139 130.858 31.1385 130.858 31.3587C130.858 31.4429 130.854 31.5228 130.849 31.607C130.717 31.648 130.58 31.6782 130.439 31.6955Z" fill="#1E1F28"/>
<path d="M132.902 25.6504C133.011 25.5641 133.16 25.5209 133.351 25.5209H133.643L133.744 25.0373V24.9747H133.434C133.197 24.9747 132.992 25.0179 132.821 25.1042C132.648 25.1906 132.515 25.3028 132.423 25.4432C132.332 25.5835 132.285 25.7368 132.285 25.903C132.285 26.0326 132.319 26.1599 132.389 26.2808C132.46 26.4039 132.564 26.5054 132.705 26.5852C132.846 26.6651 133.022 26.7062 133.227 26.7062H133.643L133.729 26.2139V26.1599H133.351C133.222 26.1599 133.096 26.1448 132.972 26.1124C132.876 26.0887 132.793 26.0282 132.725 25.9354C132.755 25.8167 132.812 25.7195 132.902 25.6461V25.6504Z" fill="#1E1F28"/>
<path d="M132.772 32.3907H133.483V28.4571C133.483 28.3534 133.483 28.2282 133.487 28.0814C133.489 27.9368 133.496 27.7921 133.502 27.6518C133.511 27.5114 133.524 27.3949 133.545 27.2999V27.2373L132.772 27.3301V32.3863V32.3907Z" fill="#1E1F28"/>
<path d="M42.5975 0.626095C42.7619 1.76818 42.3732 4.11063 40.6472 6.18322C40.3503 6.53945 37.723 9.40652 37.159 9.97649C35.6467 11.5007 35.3177 10.9156 35.3541 9.68287C35.3989 8.26444 35.4929 6.78988 36.3089 6.0688C36.531 5.87449 36.9668 5.47724 37.1932 5.28942C40.3994 2.62312 41.4632 1.16583 41.8648 0.436108C42.3646 -0.474967 42.5483 0.274187 42.5975 0.628254V0.626095Z" fill="#3AA4AF"/>
<path d="M40.4272 13.5366C42.198 11.6 42.4672 8.65305 42.2856 7.06839C42.1702 6.06016 41.4354 7.1569 41.0766 7.67937C39.6689 9.72605 37.849 11.4748 37.4047 11.8699C36.1871 12.9494 35.6873 13.5366 35.4587 14.3311C35.3007 15.0133 35.0294 16.0755 34.8969 16.7232C34.8094 17.183 34.8884 17.5673 35.871 16.9887C37.1014 16.2633 39.498 14.5513 40.4294 13.5344L40.4272 13.5366Z" fill="#3AA4AF"/>
<path d="M31.3404 18.4655C32.1414 17.9149 32.3465 16.9909 32.3913 16.8592C32.6648 16.0625 32.8271 14.6549 32.8292 14.642C32.8976 14.0634 31.7078 14.534 31.1823 14.778C27.6386 16.4058 24.5178 15.8121 24.2572 17.0535C24.2059 17.3018 23.9603 18.9145 23.8898 19.2945C23.8364 19.56 23.7467 20.279 24.8446 20.1278C26.1305 19.9487 29.7319 19.573 31.3404 18.4655Z" fill="#3AA4AF"/>
<path d="M21.7046 17.5846C21.7772 17.2543 21.8862 16.9261 20.8374 16.8139C20.5298 16.7815 19.1114 16.6627 18.2954 16.531C17.1569 16.3626 15.7535 16.0518 15.7279 16.7793C15.7279 16.7793 15.6809 18.5238 15.8689 19.1542C15.8966 19.2492 16.0269 19.3485 16.1679 19.3938C19.8313 20.3761 21.0616 20.4301 21.303 19.3506C21.5102 18.4266 21.5636 18.2388 21.7067 17.5868L21.7046 17.5846Z" fill="#3AA4AF"/>
<path d="M13.3932 18.7763C13.5512 18.8109 13.5555 18.731 13.5363 18.5842C13.4273 17.7508 13.3056 17.0254 13.2372 16.4145C13.0877 15.0565 11.7078 14.7823 11.4237 14.7089C9.67426 14.2555 7.82015 13.8345 7.32245 13.7223C6.21383 13.4697 6.39112 14.1238 6.77775 14.6614C7.74325 16.0021 7.92696 16.4684 9.19792 17.4248C10.2339 18.2042 13.3932 18.7763 13.3932 18.7763Z" fill="#3AA4AF"/>
<path d="M38.7184 19.9832C40.0043 18.5777 40.5169 16.7966 40.7775 16.0971C41.051 15.3652 40.9271 15.0845 40.0491 15.8229C39.5856 16.2137 39.1114 16.5051 38.6821 16.8139C35.7428 18.9383 33.5085 19.0613 32.6049 21.3951C31.9898 22.982 31.4878 24.0744 32.7502 23.729C32.8677 23.6966 36.1188 22.8244 38.7162 19.9854L38.7184 19.9832Z" fill="#3AA4AF"/>
<path d="M30.4966 21.3584C30.5415 21.2527 30.6889 20.8058 30.2873 20.9072C27.8693 21.5204 27.2562 21.6197 24.6417 21.8895C23.4583 22.0126 23.0717 22.1918 22.9499 22.589C22.7534 23.2367 23.046 24.2126 23.4241 25.0135C23.5117 25.1992 23.6463 25.4021 23.9667 25.4108C28.572 25.5597 29.0228 25.0524 29.4713 23.8736C29.7127 23.2389 30.1122 22.2004 30.4966 21.3584Z" fill="#3AA4AF"/>
<path d="M13.6409 21.2095C13.6068 21.1123 13.4914 21.013 13.3782 20.9785C12.5366 20.7216 11.4856 20.0652 10.3728 19.1801C10.1634 19.0117 9.97758 19.1283 10.11 19.3485C10.9345 20.7216 12.0923 22.1033 14.1685 23.3965C14.3693 23.5195 14.5488 23.4418 14.4804 23.2734C14.4804 23.2734 14.0147 22.2436 13.6431 21.2073L13.6409 21.2095Z" fill="#3AA4AF"/>
<path d="M21.2325 26.0455C21.3991 26.0455 21.4525 25.944 21.3735 25.8231C20.5169 24.5105 20.2563 24.1543 20.3653 22.5351C20.3738 22.4163 20.2435 22.2695 20.0406 22.2436C18.6906 22.0666 17.3769 21.8356 16.106 21.5873C15.9842 21.5614 15.9052 21.6046 15.9052 21.6931C15.95 24.3421 18.1053 26.0261 21.2347 26.0434L21.2325 26.0455Z" fill="#3AA4AF"/>
<path d="M36.2726 24.5299C36.3345 24.1564 36.2021 23.9816 35.7813 24.0787C35.589 24.1241 32.6712 25.454 31.0392 26.1427C30.6825 26.2938 30.5479 26.3823 30.565 26.7796C30.5778 27.0732 30.7252 29.1868 31.853 29.5085C32.0004 29.5516 32.1222 29.5106 32.2034 29.4955C34.0767 29.1285 34.9867 28.6643 35.4715 28.2412C35.9714 27.7986 35.9863 27.3905 36.0141 26.894C36.0483 26.2981 36.1102 25.3352 36.2683 24.5299H36.2726Z" fill="#3AA4AF"/>
<path d="M28.0252 26.9674C28.0359 26.8011 27.8757 26.7364 27.7091 26.7644C26.3335 26.9587 24.9365 27.0429 23.5459 27.1379C23.3857 27.1487 23.3536 27.2286 23.4134 27.3495C23.563 27.6453 24.1248 28.9536 25.3145 29.5991C26.6475 30.344 28.5678 30.3353 29.0057 30.3612C29.1979 30.3785 29.2684 30.2555 29.1552 30.113C28.634 29.4631 27.9505 28.049 28.0252 26.9674Z" fill="#3AA4AF"/>
<path d="M22.9414 29.774C22.5377 29.217 22.1617 28.6492 21.8114 28.0814C21.7495 27.9842 21.6106 27.9044 21.4696 27.8871C20.628 27.7899 19.5151 27.3733 18.2783 26.7277C18.0071 26.5852 17.7785 26.7277 17.9622 26.9393C18.9362 28.0555 20.3461 29.1198 22.6167 29.951C22.8709 30.0482 23.0653 29.9338 22.9414 29.7654V29.774Z" fill="#3AA4AF"/>
<path d="M33.7307 34.1329C33.9592 34.1027 33.8973 33.8846 33.626 33.7702C32.6797 33.3816 31.9449 32.8591 31.1012 32.1229C31.0029 32.0366 30.847 31.9632 30.6974 31.9632C29.0228 31.9632 27.0277 31.8034 26.263 31.5638C25.8528 31.4364 25.6755 31.6696 26.0173 31.8725C26.3847 32.0949 27.944 33.0858 29.7597 33.6277C31.4856 34.1502 32.6178 34.2776 33.7307 34.1329Z" fill="#3AA4AF"/>
<path d="M40.1389 32.6281C38.7889 31.6005 37.9366 30.3397 37.5628 29.5279C37.4794 29.3487 37.3513 29.3595 37.221 29.4221C36.2128 29.8474 35.134 30.1929 34.0212 30.4757C32.9424 30.7412 33.4594 31.8725 35.4331 32.9822C35.9223 33.2586 37.9408 33.2586 40.1132 32.8937C40.2713 32.8678 40.2798 32.7339 40.1389 32.6281Z" fill="#3AA4AF"/>
<path d="M44.6267 36.6049C43.5395 35.8795 42.794 35.5837 41.4184 34.7439C41.271 34.6532 41.0979 34.6662 40.9805 34.6813C38.8337 34.9598 37.975 34.908 36.1423 34.8756C35.8966 34.8713 35.8454 34.99 36.012 35.1239C37.2722 36.1343 41.2347 37.4102 44.6887 36.8683C44.8318 36.8467 44.8019 36.7172 44.6267 36.6028V36.6049Z" fill="#3AA4AF"/>
<path d="M7.61081 10.4622C7.38226 10.676 7.4442 11.1013 7.56596 11.7835C7.63645 12.2002 7.96113 12.4938 8.49515 12.6341C9.15092 12.8047 10.4646 13.0336 11.1503 13.1674C12.1393 13.3596 12.2162 13.1739 10.9922 12.1743C9.76824 11.1747 8.0722 10.0305 7.60868 10.4644L7.61081 10.4622Z" fill="#3AA4AF"/>
<path d="M6.4981 11.2157C6.49169 10.7839 6.50237 10.4579 6.4981 10.2053C6.49596 10.0261 6.44469 9.94194 6.31439 9.91388C5.41933 9.70662 4.56058 9.73684 3.65698 10.0995C3.14002 10.3133 3.11439 10.5249 3.48181 10.6846C4.7272 11.2157 5.25698 12.6061 5.95124 12.6061C6.52373 12.578 6.50878 11.8979 6.4981 11.2157Z" fill="#3AA4AF"/>
<path d="M3.7189 12.3772C2.92215 11.4079 2.37745 11.2244 1.93101 11.4813C1.35214 11.8094 0.739088 12.5888 0.326827 13.1285C-0.181557 13.8907 -0.102523 14.3851 0.598107 14.5988C0.764721 13.1804 3.44762 14.7801 5.2526 16.3972C5.80584 16.8937 6.26937 16.857 6.39112 16.7513C6.5321 16.6368 6.51502 16.4058 5.91051 15.458C4.93433 13.9295 4.31914 13.1048 3.7189 12.3751V12.3772Z" fill="#3AA4AF"/>
<path d="M32.355 12.9515C32.9937 12.632 32.872 11.0927 32.7395 10.065C32.6605 9.41948 32.355 9.38277 31.8018 9.77354C30.3129 10.8185 27.4549 12.6082 26.0622 13.1847C25.8614 13.2732 25.0903 13.5776 24.6908 13.977C24.4623 14.2059 24.3982 14.8449 25.1244 14.7866C26.9871 14.6355 30.5415 13.8388 32.355 12.9537V12.9515Z" fill="#3AA4AF"/>
<path d="M15.4737 14.5988C16.6934 15.5444 20.5938 15.6005 21.6149 15.2897C22.2322 15.1191 22.2856 14.5945 22.3198 14.2102C22.3283 14.1195 22.2279 14.0331 22.0869 14.0591C19.9594 14.4498 17.4282 14.4822 15.3797 13.9317C15.0892 13.854 15.0828 14.2987 15.4715 14.6009L15.4737 14.5988Z" fill="#3AA4AF"/>
</g>
<defs>
<clipPath id="clip0_265_1305">
<rect width="160" height="37" fill="white"/>
</clipPath>
</defs>
</svg>
