<svg width="160" height="37" viewBox="0 0 160 37" fill="none" xmlns="http://www.w3.org/2000/svg">
<g clip-path="url(#clip0_265_1537)">
<path d="M59.199 14.5992V20.0743C58.4321 20.3549 56.9305 20.7004 55.5591 20.7004C52.8335 20.7004 51.3489 19.6619 51.3489 17.7642V17.7469C51.3489 15.8838 52.8015 14.828 55.4459 14.828C56.1145 14.828 57.1099 14.9274 58.0733 15.059V14.6294C58.0733 13.1613 57.2253 12.2546 55.07 12.2546C54.1557 12.2546 52.998 12.4532 52.0667 12.9152L52.2632 11.8595C53.0962 11.4471 54.2219 11.2334 55.3306 11.2334C57.8597 11.2334 59.199 12.3712 59.199 14.5992ZM58.0733 19.2668V16.1169C57.7635 16.05 56.3751 15.8687 55.5442 15.8687C53.5042 15.8687 52.5088 16.4796 52.5088 17.7318C52.5088 18.984 53.5042 19.6446 55.5442 19.6446C56.2469 19.6446 57.3726 19.4957 58.0733 19.2647V19.2668Z" fill="white"/>
<path d="M73.3483 11.499L70.8833 20.5385H69.4137L67.0319 12.6217L64.6331 20.5385H63.1806L60.6835 11.499H61.8904L63.9795 19.3015L66.3292 11.499H67.7155L70.0652 19.2669L72.1542 11.499H73.3462H73.3483Z" fill="white"/>
<path d="M82.6808 11.7623V24.1827H81.538V20.5536C80.8352 20.7025 80.1025 20.7846 79.466 20.7846C76.2683 20.7846 74.4078 18.9365 74.4078 16.05V16.0327C74.4078 13.0318 76.4306 11.3154 79.466 11.3154C80.3802 11.3154 81.4739 11.4795 82.4693 11.7602H82.6808V11.7623ZM81.5401 19.4978V12.6518C80.7241 12.4532 80.0556 12.3712 79.419 12.3712C76.9219 12.3712 75.5185 13.8565 75.5185 16.0327V16.05C75.5185 18.3752 77.0522 19.7288 79.419 19.7288C80.0385 19.7288 80.8395 19.6619 81.5401 19.4978Z" fill="white"/>
<path d="M92.8634 14.5992V20.0743C92.0966 20.3549 90.5949 20.7004 89.2236 20.7004C86.4979 20.7004 85.0134 19.6619 85.0134 17.7642V17.7469C85.0134 15.8838 86.4659 14.828 89.1103 14.828C89.7789 14.828 90.7743 14.9274 91.7377 15.059V14.6294C91.7377 13.1613 90.8897 12.2546 88.7344 12.2546C87.8202 12.2546 86.6624 12.4532 85.7311 12.9152L85.9276 11.8595C86.7607 11.4471 87.8864 11.2334 88.995 11.2334C91.5241 11.2334 92.8634 12.3712 92.8634 14.5992ZM91.7377 19.2668V16.1169C91.428 16.05 90.0395 15.8687 89.2086 15.8687C87.1687 15.8687 86.1733 16.4796 86.1733 17.7318C86.1733 18.984 87.1687 19.6446 89.2086 19.6446C89.9114 19.6446 91.0371 19.4957 91.7377 19.2647V19.2668Z" fill="white"/>
<path d="M96.7639 12.5866H94.9525V11.4985H96.7639V10.1621C96.7639 7.78723 97.9216 7.16113 100.175 7.16113H101.596V8.14993H100.224C98.6906 8.14993 97.9067 8.69398 97.9067 10.3758V11.4963H101.561V12.5844H97.9067V20.5336H96.7639V12.5844V12.5866Z" fill="white"/>
<path d="M106.098 15.9846V15.9673C106.131 13.1304 107.976 11.25 110.717 11.25C111.825 11.25 112.823 11.4637 113.686 11.8934L113.229 12.867C112.479 12.4871 111.678 12.323 110.732 12.323C108.643 12.323 107.271 13.7587 107.239 15.9673V15.9846C107.271 18.1953 108.643 19.6461 110.749 19.6461C111.678 19.6461 112.528 19.4648 113.229 19.0848L113.686 20.0585C112.821 20.4881 111.825 20.7191 110.717 20.7191C107.927 20.7191 106.131 18.856 106.098 15.9846Z" fill="white"/>
<path d="M122.875 14.5992V20.0743C122.108 20.3549 120.607 20.7004 119.235 20.7004C116.51 20.7004 115.025 19.6619 115.025 17.7642V17.7469C115.025 15.8838 116.478 14.828 119.122 14.828C119.791 14.828 120.786 14.9274 121.749 15.059V14.6294C121.749 13.1613 120.901 12.2546 118.746 12.2546C117.832 12.2546 116.674 12.4532 115.743 12.9152L115.939 11.8595C116.772 11.4471 117.898 11.2334 119.007 11.2334C121.536 11.2334 122.875 12.3712 122.875 14.5992ZM121.749 19.2668V16.1169C121.44 16.05 120.051 15.8687 119.22 15.8687C117.18 15.8687 116.185 16.4796 116.185 17.7318C116.185 18.984 117.18 19.6446 119.22 19.6446C119.923 19.6446 121.049 19.4957 121.749 19.2647V19.2668Z" fill="white"/>
<path d="M134.216 16.0345V16.0517C134.216 18.9383 132.355 20.7863 129.157 20.7863C128.521 20.7863 127.786 20.7043 127.085 20.5553V24.1845H125.943V11.7641H126.154C127.149 11.4834 128.243 11.3193 129.157 11.3193C132.193 11.3193 134.216 13.0357 134.216 16.0366V16.0345ZM133.107 16.0345C133.107 13.8583 131.704 12.3729 129.206 12.3729C128.57 12.3729 127.901 12.4549 127.085 12.6536V19.4996C127.788 19.6637 128.587 19.7306 129.206 19.7306C131.573 19.7306 133.107 18.3791 133.107 16.0517V16.0345Z" fill="white"/>
<path d="M136.157 9.25508C136.157 8.71103 136.597 8.33105 137.136 8.33105C137.674 8.33105 138.099 8.71103 138.099 9.25508C138.099 9.84879 137.642 10.1791 137.136 10.1791C136.629 10.1791 136.157 9.84879 136.157 9.25508ZM136.565 11.4982H137.708V20.5377H136.565V11.4982Z" fill="white"/>
<path d="M141.559 17.716V12.554H139.748V11.4982H141.559V8.16699H142.685V11.4982H146.34V12.554H142.685V17.3706C142.685 19.02 143.484 19.4648 144.986 19.4648H146.357V20.5377H144.644C142.245 20.5377 141.559 19.5813 141.559 17.7182V17.716Z" fill="white"/>
<path d="M155.79 14.5992V20.0743C155.023 20.3549 153.521 20.7004 152.15 20.7004C149.424 20.7004 147.94 19.6619 147.94 17.7642V17.7469C147.94 15.8838 149.392 14.828 152.037 14.828C152.705 14.828 153.701 14.9274 154.664 15.059V14.6294C154.664 13.1613 153.816 12.2546 151.661 12.2546C150.747 12.2546 149.589 12.4532 148.657 12.9152L148.854 11.8595C149.687 11.4471 150.813 11.2334 151.921 11.2334C154.45 11.2334 155.79 12.3712 155.79 14.5992ZM154.664 19.2668V16.1169C154.354 16.05 152.966 15.8687 152.135 15.8687C150.095 15.8687 149.1 16.4796 149.1 17.7318C149.1 18.984 150.095 19.6446 152.135 19.6446C152.838 19.6446 153.963 19.4957 154.664 19.2647V19.2668Z" fill="white"/>
<path d="M158.857 7.15918H160V20.536H158.857V7.15918Z" fill="white"/>
<path d="M89.1958 27.6281C89.3133 27.6281 89.4137 27.5893 89.4927 27.5115C89.5718 27.4338 89.6124 27.3323 89.6124 27.2071C89.6124 27.0819 89.5718 26.9804 89.4927 26.9027C89.4137 26.825 89.3133 26.7861 89.1958 26.7861C89.0783 26.7861 88.9779 26.825 88.8989 26.9027C88.8198 26.9804 88.7793 27.0819 88.7793 27.2071C88.7793 27.3323 88.8198 27.4338 88.8989 27.5115C88.9779 27.5893 89.0783 27.6281 89.1958 27.6281Z" fill="white"/>
<path d="M88.1854 27.7687C88.3029 27.7687 88.4033 27.7299 88.4824 27.6522C88.5614 27.5744 88.602 27.473 88.602 27.3478C88.602 27.2225 88.5614 27.1211 88.4824 27.0433C88.4033 26.9656 88.3029 26.9268 88.1854 26.9268C88.068 26.9268 87.9676 26.9656 87.8885 27.0433C87.8095 27.1211 87.7689 27.2225 87.7689 27.3478C87.7689 27.473 87.8095 27.5744 87.8885 27.6522C87.9676 27.7299 88.068 27.7687 88.1854 27.7687Z" fill="white"/>
<path d="M90.1528 33.2627C90.0353 33.2627 89.9349 33.3016 89.8558 33.3793C89.7768 33.457 89.7362 33.5585 89.7362 33.6837C89.7362 33.8089 89.7768 33.9104 89.8558 33.9881C89.9349 34.0658 90.0353 34.1047 90.1528 34.1047C90.2703 34.1047 90.3707 34.0658 90.4497 33.9881C90.5287 33.9104 90.5693 33.8089 90.5693 33.6837C90.5693 33.5585 90.5287 33.457 90.4497 33.3793C90.3707 33.3016 90.2703 33.2627 90.1528 33.2627Z" fill="white"/>
<path d="M91.1631 33.1221C91.0435 33.1221 90.9452 33.1609 90.8662 33.2387C90.785 33.3164 90.7466 33.4178 90.7466 33.5431C90.7466 33.6683 90.7872 33.7698 90.8662 33.8475C90.9452 33.9252 91.0456 33.9641 91.1631 33.9641C91.2806 33.9641 91.381 33.9252 91.4601 33.8475C91.5391 33.7698 91.5797 33.6683 91.5797 33.5431C91.5797 33.4178 91.5391 33.3164 91.4601 33.2387C91.381 33.1609 91.2806 33.1221 91.1631 33.1221Z" fill="white"/>
<path d="M93.1924 33.2324C93.0728 33.2324 92.9745 33.2713 92.8955 33.349C92.8164 33.4267 92.7758 33.5282 92.7758 33.6534C92.7758 33.7786 92.8164 33.8801 92.8955 33.9578C92.9745 34.0355 93.0749 34.0744 93.1924 34.0744C93.3099 34.0744 93.4103 34.0355 93.4893 33.9578C93.5684 33.8801 93.6089 33.7786 93.6089 33.6534C93.6089 33.5282 93.5684 33.4267 93.4893 33.349C93.4103 33.2713 93.3099 33.2324 93.1924 33.2324Z" fill="white"/>
<path d="M93.7285 31.406C93.7264 31.2699 93.7242 31.1512 93.7242 31.0476V28.4568H93.6623L93.0129 28.5497V31.1404C93.0129 31.3023 93.0236 31.4491 93.0428 31.5808C93.0514 31.6348 93.0599 31.6823 93.0685 31.7255H91.3853V28.4547H91.3233L90.6739 28.5475V31.1382C90.6739 31.3002 90.6846 31.447 90.706 31.5787C90.7145 31.6326 90.7231 31.6801 90.7316 31.7233H89.8622H89.0548V28.4525H88.9929L88.3435 28.5453V31.1361C88.3435 31.298 88.3542 31.4448 88.3734 31.5765C88.3819 31.6305 88.3905 31.678 88.399 31.7212H87.363H86.7244V27.671C86.7244 27.5673 86.7244 27.4421 86.7286 27.2953C86.7308 27.1507 86.7372 27.006 86.7436 26.8657C86.7521 26.7254 86.7649 26.6088 86.7863 26.5138V26.4512L86.013 26.544V32.3818H89.7063H92.3721H92.5302C92.8549 32.3818 92.9659 32.3667 93.2009 32.3343C93.4359 32.3041 93.6303 32.2566 93.7841 32.194V32.1314C93.7627 32.0385 93.7499 31.9263 93.7413 31.7967C93.7328 31.6672 93.7285 31.5333 93.7264 31.3995L93.7285 31.406Z" fill="white"/>
<path d="M104.351 29.6766C104.221 29.4931 104.091 29.3398 103.96 29.2211H103.868C103.715 29.2621 103.529 29.288 103.317 29.2988C103.104 29.3096 102.897 29.3139 102.696 29.3139H97.6717L99.9851 27.0967L99.6689 26.6131H99.607L96.734 29.4068C96.7447 29.6313 96.8002 29.7803 96.9049 29.8601C97.0074 29.9379 97.1163 29.9767 97.2295 29.9767H102.696C102.882 29.9767 103.031 29.9746 103.144 29.9681C103.258 29.9638 103.366 29.953 103.473 29.94C103.529 29.9335 103.595 29.9228 103.666 29.9098C103.785 30.0523 103.883 30.2056 103.956 30.3718C104.065 30.6158 104.118 30.8381 104.118 31.0346C104.118 31.2958 104.041 31.475 103.89 31.5722C103.738 31.6715 103.507 31.7212 103.198 31.7212H95.5848C95.5848 31.7212 95.5848 27.4961 95.589 27.2953C95.5912 27.1507 95.5976 27.006 95.604 26.8657C95.6125 26.7254 95.6254 26.6088 95.6467 26.5138V26.4512L94.8735 26.544V32.3818H103.035C103.36 32.3818 103.636 32.3473 103.862 32.2803C104.088 32.2134 104.274 32.1162 104.417 31.9867C104.563 31.8593 104.665 31.7104 104.729 31.542C104.793 31.3736 104.825 31.1879 104.825 30.985C104.825 30.741 104.778 30.5057 104.687 30.2833C104.595 30.0588 104.481 29.8558 104.351 29.6702V29.6766Z" fill="white"/>
<path d="M84.1547 31.3847L84.191 31.7323C83.8407 31.7215 80.5703 31.7086 80.2542 31.674C79.9381 31.6395 79.6561 31.5877 79.4083 31.5143C79.3507 31.4927 79.2716 31.4668 79.1691 31.4365C79.0666 31.4063 78.964 31.3718 78.8594 31.3351C78.7568 31.2984 78.6778 31.2681 78.6201 31.2422H78.5582L78.4193 31.8748C78.4855 31.905 78.5603 31.9353 78.6393 31.9633C78.7184 31.9914 78.806 32.0216 78.8978 32.0497C78.9897 32.0777 79.0858 32.108 79.184 32.1403C79.6625 32.272 80.1645 32.3498 80.6921 32.3757C80.9548 32.3865 83.093 32.4404 84.1376 32.3908H84.8638V27.6778C84.8638 27.5742 84.8638 27.449 84.8681 27.3022C84.8703 27.1575 84.8767 27.0129 84.8831 26.8725C84.8916 26.7322 84.9044 26.6156 84.9258 26.5206V26.458L84.1525 26.5508V31.3847H84.1547Z" fill="white"/>
<path d="M115.501 27.6154C115.619 27.6154 115.719 27.5766 115.798 27.4988C115.877 27.4211 115.918 27.3196 115.918 27.1944C115.918 27.0692 115.877 26.9677 115.798 26.89C115.719 26.8123 115.619 26.7734 115.501 26.7734C115.384 26.7734 115.284 26.8123 115.205 26.89C115.126 26.9677 115.085 27.0692 115.085 27.1944C115.085 27.3196 115.126 27.4211 115.205 27.4988C115.284 27.5766 115.384 27.6154 115.501 27.6154Z" fill="white"/>
<path d="M116.255 28.4139C116.042 28.3794 115.822 28.3643 115.595 28.3643C115.164 28.3643 114.792 28.4441 114.483 28.6017C114.173 28.7615 113.938 28.9774 113.771 29.2537C113.607 29.5301 113.523 29.8475 113.523 30.2058C113.523 30.5642 113.62 30.8967 113.81 31.186C113.951 31.3997 114.119 31.5811 114.312 31.7279C114.312 31.7279 110.64 31.7236 110.289 31.7171C109.939 31.7085 109.606 31.689 109.29 31.6545C108.974 31.6199 108.692 31.5681 108.444 31.4947C108.386 31.4731 108.307 31.4472 108.205 31.417C108.102 31.3868 108 31.3522 107.895 31.3155C107.792 31.2788 107.711 31.2486 107.656 31.2227H107.594L107.455 31.8553C107.521 31.8855 107.596 31.9157 107.675 31.9459C107.754 31.974 107.842 32.0042 107.933 32.0323C108.025 32.0604 108.121 32.0906 108.22 32.123C108.709 32.259 109.224 32.3367 109.764 32.3605C110.304 32.3842 110.832 32.395 111.347 32.395H115.561C115.886 32.395 116.166 32.3799 116.399 32.3475C116.634 32.3173 116.828 32.2698 116.982 32.2072L117.012 32.1446V29.9273C117.012 29.8237 117.012 29.6898 117.016 29.5301C117.018 29.3682 117.024 29.2106 117.031 29.053C117.039 28.8975 117.052 28.7723 117.074 28.6773L117.044 28.6147C116.73 28.5154 116.465 28.4506 116.251 28.4161L116.255 28.4139ZM115.305 31.5509C114.957 31.4127 114.692 31.2205 114.51 30.9744C114.327 30.7283 114.237 30.452 114.237 30.1519C114.237 29.8086 114.354 29.5279 114.589 29.312C114.824 29.0961 115.14 28.9882 115.542 28.9882C115.707 28.9882 115.839 28.9968 115.939 29.0119C116.04 29.0271 116.132 29.0486 116.213 29.0745C116.253 29.0875 116.294 29.1005 116.339 29.1134C116.332 29.1587 116.326 29.2084 116.322 29.2624C116.311 29.3768 116.307 29.5042 116.307 29.6445V31.7236C115.924 31.7193 115.591 31.6653 115.307 31.553L115.305 31.5509Z" fill="white"/>
<path d="M125.94 28.414C125.727 28.3795 125.507 28.3644 125.28 28.3644C124.849 28.3644 124.477 28.4442 124.167 28.6018C123.858 28.7616 123.623 28.9775 123.456 29.2538C123.292 29.5302 123.208 29.8476 123.208 30.2059C123.208 30.5643 123.305 30.8968 123.495 31.1861C123.636 31.3998 123.804 31.5812 123.997 31.728H118.926H118.872V27.6778C118.872 27.5742 118.872 27.449 118.876 27.3022C118.879 27.1575 118.885 27.0129 118.891 26.8725C118.9 26.7322 118.913 26.6156 118.934 26.5206V26.458L118.161 26.5508V32.3886H125.246C125.571 32.3886 125.851 32.3735 126.084 32.3411C126.319 32.3109 126.513 32.2634 126.667 32.2008L126.697 32.1382V29.921C126.697 29.8173 126.697 29.6835 126.701 29.5237C126.703 29.3618 126.709 29.2042 126.716 29.0466C126.724 28.8911 126.737 28.7659 126.759 28.6709L126.729 28.6083C126.415 28.509 126.15 28.4442 125.936 28.4097L125.94 28.414ZM124.99 31.551C124.642 31.4128 124.377 31.2206 124.195 30.9745C124.012 30.7284 123.922 30.4521 123.922 30.152C123.922 29.8087 124.039 29.528 124.274 29.3121C124.509 29.0962 124.825 28.9883 125.227 28.9883C125.391 28.9883 125.524 28.9969 125.624 29.012C125.725 29.0272 125.817 29.0487 125.898 29.0746C125.936 29.0876 125.979 29.1006 126.024 29.1135C126.017 29.1588 126.011 29.2085 126.007 29.2625C125.996 29.3769 125.992 29.5043 125.992 29.6446V31.7237C125.609 31.7194 125.276 31.6654 124.992 31.5531L124.99 31.551Z" fill="white"/>
<path d="M124.778 27.6301C124.896 27.6301 124.996 27.5912 125.075 27.5135C125.154 27.4358 125.195 27.3343 125.195 27.2091C125.195 27.0839 125.154 26.9824 125.075 26.9047C124.996 26.8269 124.896 26.7881 124.778 26.7881C124.661 26.7881 124.561 26.8269 124.482 26.9047C124.402 26.9824 124.362 27.0839 124.362 27.2091C124.362 27.3343 124.402 27.4358 124.482 27.5135C124.561 27.5912 124.661 27.6301 124.778 27.6301Z" fill="white"/>
<path d="M125.789 27.4894C125.906 27.4894 126.007 27.4506 126.086 27.3729C126.165 27.2951 126.205 27.1937 126.205 27.0685C126.205 26.9432 126.165 26.8418 126.086 26.764C126.007 26.6863 125.906 26.6475 125.789 26.6475C125.671 26.6475 125.571 26.6863 125.492 26.764C125.413 26.8418 125.372 26.9432 125.372 27.0685C125.372 27.1937 125.413 27.2951 125.492 27.3729C125.571 27.4506 125.671 27.4894 125.789 27.4894Z" fill="white"/>
<path d="M131.565 31.1187C131.565 31.1187 131.565 31.0993 131.565 31.0885C131.556 30.7819 131.503 30.4905 131.403 30.2163C131.291 29.9162 131.142 29.6528 130.952 29.4196C130.762 29.1886 130.546 29.0051 130.307 28.8734C130.067 28.7417 129.82 28.6748 129.561 28.6748C129.345 28.6748 129.13 28.7266 128.912 28.8259C128.696 28.9274 128.499 29.0677 128.32 29.2469C128.143 29.4261 128.002 29.6355 127.895 29.8709C127.79 30.1083 127.737 30.3631 127.737 30.6394C127.737 31.0345 127.833 31.3627 128.023 31.6218C128.213 31.883 128.465 32.0751 128.779 32.1982C129.093 32.3234 129.435 32.386 129.807 32.386C129.956 32.386 130.132 32.3752 130.332 32.3558C130.495 32.3385 130.651 32.304 130.802 32.2608V32.2651C130.802 32.2824 130.798 32.3018 130.796 32.3213C130.757 32.589 130.695 32.8416 130.608 33.0791C130.582 33.1373 130.557 33.1892 130.531 33.2237C130.386 33.4137 129.315 34.3226 129.281 34.342L129.275 34.4241L129.595 34.9077C129.595 34.9077 129.531 34.9616 130.762 33.921C131.287 33.4763 131.567 32.5933 131.567 31.2288C131.567 31.2072 131.567 31.1878 131.567 31.1662C131.567 31.149 131.567 31.1317 131.565 31.1123V31.1187ZM130.439 31.6952C130.253 31.7168 130.095 31.7254 129.961 31.7254C129.647 31.7254 129.377 31.6822 129.151 31.5937C128.925 31.5052 128.752 31.38 128.63 31.2159C128.508 31.0518 128.448 30.8553 128.448 30.6265C128.448 30.3242 128.551 30.0263 128.754 29.7327C128.907 29.5125 129.127 29.329 129.414 29.1822C129.647 29.2512 129.847 29.3484 130.016 29.4779C130.217 29.6334 130.379 29.8169 130.503 30.0241C130.627 30.2314 130.717 30.4516 130.772 30.6826C130.83 30.9136 130.858 31.1382 130.858 31.3584C130.858 31.4426 130.854 31.5225 130.849 31.6066C130.717 31.6477 130.58 31.6779 130.439 31.6952Z" fill="white"/>
<path d="M132.902 25.6504C133.011 25.564 133.16 25.5208 133.351 25.5208H133.643L133.744 25.0372V24.9746H133.434C133.197 24.9746 132.992 25.0178 132.821 25.1041C132.648 25.1905 132.515 25.3028 132.423 25.4431C132.332 25.5834 132.285 25.7367 132.285 25.903C132.285 26.0325 132.319 26.1599 132.389 26.2808C132.46 26.4038 132.564 26.5053 132.705 26.5852C132.846 26.6651 133.022 26.7061 133.227 26.7061H133.643L133.729 26.2138V26.1599H133.351C133.222 26.1599 133.096 26.1448 132.972 26.1124C132.876 26.0886 132.793 26.0282 132.725 25.9353C132.755 25.8166 132.812 25.7194 132.902 25.646V25.6504Z" fill="white"/>
<path d="M132.772 32.3907H133.483V28.4571C133.483 28.3535 133.483 28.2283 133.487 28.0815C133.489 27.9368 133.496 27.7922 133.502 27.6518C133.511 27.5115 133.524 27.3949 133.545 27.2999V27.2373L132.772 27.3301V32.3864V32.3907Z" fill="white"/>
<path d="M42.5975 0.626557C42.7619 1.76864 42.3732 4.11109 40.6472 6.18368C40.3503 6.53991 37.723 9.40699 37.159 9.97695C35.6467 11.5012 35.3177 10.9161 35.3541 9.68333C35.3989 8.2649 35.4929 6.79034 36.3089 6.06926C36.531 5.87495 36.9668 5.47771 37.1932 5.28988C40.3994 2.62358 41.4632 1.16629 41.8648 0.43657C42.3646 -0.474505 42.5483 0.274649 42.5975 0.628716V0.626557Z" fill="#3AA4AF"/>
<path d="M40.4272 13.5369C42.198 11.6004 42.4672 8.6534 42.2856 7.06874C42.1702 6.06051 41.4354 7.15725 41.0766 7.67972C39.6689 9.7264 37.849 11.4751 37.4047 11.8702C36.1871 12.9497 35.6873 13.5369 35.4587 14.3314C35.3007 15.0137 35.0294 16.0759 34.8969 16.7235C34.8094 17.1834 34.8884 17.5677 35.871 16.9891C37.1014 16.2637 39.498 14.5516 40.4294 13.5348L40.4272 13.5369Z" fill="#3AA4AF"/>
<path d="M31.3404 18.4663C32.1414 17.9158 32.3465 16.9918 32.3913 16.8601C32.6648 16.0634 32.8271 14.6558 32.8292 14.6428C32.8976 14.0642 31.7078 14.5349 31.1823 14.7789C27.6386 16.4067 24.5178 15.813 24.2572 17.0544C24.2059 17.3027 23.9603 18.9154 23.8898 19.2954C23.8364 19.5609 23.7467 20.2799 24.8446 20.1287C26.1305 19.9495 29.7319 19.5739 31.3404 18.4663Z" fill="#3AA4AF"/>
<path d="M21.7046 17.5852C21.7772 17.2548 21.8862 16.9267 20.8374 16.8144C20.5298 16.782 19.1114 16.6633 18.2954 16.5316C17.1569 16.3632 15.7535 16.0523 15.7279 16.7799C15.7279 16.7799 15.6809 18.5243 15.8689 19.1547C15.8966 19.2497 16.0269 19.349 16.1679 19.3943C19.8313 20.3767 21.0616 20.4306 21.303 19.3512C21.5102 18.4271 21.5636 18.2393 21.7067 17.5873L21.7046 17.5852Z" fill="#3AA4AF"/>
<path d="M13.3932 18.777C13.5512 18.8116 13.5555 18.7317 13.5363 18.5849C13.4273 17.7515 13.3056 17.0261 13.2372 16.4151C13.0877 15.0571 11.7078 14.783 11.4237 14.7096C9.67426 14.2562 7.82015 13.8352 7.32245 13.7229C6.21383 13.4703 6.39112 14.1245 6.77775 14.6621C7.74325 16.0028 7.92696 16.4691 9.19792 17.4255C10.2339 18.2049 13.3932 18.777 13.3932 18.777Z" fill="#3AA4AF"/>
<path d="M38.7184 19.9834C40.0043 18.5779 40.5169 16.7968 40.7775 16.0973C41.051 15.3654 40.9271 15.0847 40.0491 15.8231C39.5856 16.2138 39.1114 16.5053 38.6821 16.814C35.7428 18.9384 33.5085 19.0615 32.6049 21.3953C31.9898 22.9821 31.4878 24.0746 32.7502 23.7291C32.8677 23.6967 36.1188 22.8245 38.7162 19.9855L38.7184 19.9834Z" fill="#3AA4AF"/>
<path d="M30.4967 21.3587C30.5415 21.2529 30.6889 20.806 30.2873 20.9075C27.8693 21.5206 27.2562 21.6199 24.6417 21.8898C23.4583 22.0128 23.0717 22.192 22.9499 22.5893C22.7534 23.237 23.046 24.2128 23.4241 25.0138C23.5117 25.1994 23.6463 25.4024 23.9667 25.411C28.5721 25.56 29.0228 25.0526 29.4713 23.8739C29.7127 23.2391 30.1122 22.2007 30.4967 21.3587Z" fill="#3AA4AF"/>
<path d="M13.6409 21.2101C13.6068 21.113 13.4914 21.0137 13.3782 20.9791C12.5366 20.7222 11.4856 20.0659 10.3728 19.1807C10.1634 19.0123 9.97758 19.1289 10.11 19.3491C10.9345 20.7222 12.0923 22.1039 14.1685 23.3971C14.3693 23.5202 14.5488 23.4425 14.4804 23.2741C14.4804 23.2741 14.0147 22.2443 13.6431 21.208L13.6409 21.2101Z" fill="#3AA4AF"/>
<path d="M21.2325 26.0458C21.3991 26.0458 21.4525 25.9443 21.3735 25.8234C20.5169 24.5107 20.2563 24.1545 20.3653 22.5353C20.3738 22.4166 20.2435 22.2698 20.0406 22.2438C18.6906 22.0668 17.3769 21.8358 16.106 21.5875C15.9842 21.5616 15.9052 21.6048 15.9052 21.6933C15.95 24.3423 18.1053 26.0263 21.2347 26.0436L21.2325 26.0458Z" fill="#3AA4AF"/>
<path d="M36.2726 24.5304C36.3345 24.1569 36.2021 23.982 35.7813 24.0792C35.589 24.1245 32.6712 25.4544 31.0392 26.1431C30.6825 26.2943 30.5479 26.3828 30.565 26.78C30.5778 27.0736 30.7252 29.1873 31.853 29.5089C32.0004 29.5521 32.1222 29.5111 32.2034 29.496C34.0767 29.129 34.9867 28.6648 35.4715 28.2416C35.9714 27.7991 35.9863 27.391 36.0141 26.8945C36.0483 26.2986 36.1102 25.3357 36.2683 24.5304H36.2726Z" fill="#3AA4AF"/>
<path d="M28.0252 26.9681C28.0359 26.8018 27.8757 26.7371 27.7091 26.7651C26.3334 26.9594 24.9365 27.0436 23.5459 27.1386C23.3857 27.1494 23.3536 27.2293 23.4134 27.3502C23.563 27.646 24.1248 28.9543 25.3145 29.5998C26.6474 30.3447 28.5678 30.336 29.0057 30.3619C29.1979 30.3792 29.2684 30.2561 29.1552 30.1136C28.634 29.4638 27.9504 28.0497 28.0252 26.9681Z" fill="#3AA4AF"/>
<path d="M22.9414 29.7746C22.5377 29.2176 22.1617 28.6498 21.8114 28.082C21.7495 27.9848 21.6106 27.9049 21.4696 27.8877C20.628 27.7905 19.5151 27.3738 18.2783 26.7283C18.0071 26.5858 17.7785 26.7283 17.9622 26.9399C18.9362 28.0561 20.3461 29.1204 22.6167 29.9516C22.8709 30.0488 23.0653 29.9343 22.9414 29.7659V29.7746Z" fill="#3AA4AF"/>
<path d="M33.7307 34.1338C33.9592 34.1035 33.8973 33.8855 33.626 33.7711C32.6797 33.3824 31.9449 32.86 31.1012 32.1238C31.0029 32.0374 30.847 31.964 30.6974 31.964C29.0228 31.964 27.0277 31.8043 26.263 31.5646C25.8528 31.4372 25.6755 31.6704 26.0173 31.8733C26.3847 32.0957 27.944 33.0867 29.7597 33.6286C31.4856 34.151 32.6178 34.2784 33.7307 34.1338Z" fill="#3AA4AF"/>
<path d="M40.1389 32.6283C38.7889 31.6007 37.9366 30.3398 37.5628 29.5281C37.4795 29.3489 37.3513 29.3597 37.221 29.4223C36.2128 29.8476 35.134 30.193 34.0212 30.4758C32.9424 30.7414 33.4594 31.8727 35.4331 32.9824C35.9223 33.2587 37.9408 33.2587 40.1132 32.8939C40.2713 32.868 40.2798 32.7341 40.1389 32.6283Z" fill="#3AA4AF"/>
<path d="M44.6267 36.6053C43.5395 35.8799 42.794 35.5841 41.4184 34.7443C41.271 34.6536 41.0979 34.6665 40.9805 34.6817C38.8337 34.9602 37.975 34.9083 36.1423 34.876C35.8966 34.8716 35.8454 34.9904 36.012 35.1242C37.2722 36.1346 41.2347 37.4106 44.6887 36.8687C44.8318 36.8471 44.8019 36.7175 44.6267 36.6031V36.6053Z" fill="#3AA4AF"/>
<path d="M7.61081 10.4625C7.38226 10.6763 7.4442 11.1016 7.56596 11.7838C7.63645 12.2005 7.96113 12.4941 8.49515 12.6344C9.15092 12.805 10.4646 13.0338 11.1503 13.1677C12.1393 13.3598 12.2162 13.1742 10.9922 12.1746C9.76824 11.175 8.0722 10.0307 7.60868 10.4647L7.61081 10.4625Z" fill="#3AA4AF"/>
<path d="M6.4981 11.2166C6.49169 10.7848 6.50237 10.4588 6.4981 10.2062C6.49596 10.027 6.44469 9.94285 6.31439 9.91478C5.41933 9.70752 4.56058 9.73775 3.65698 10.1005C3.14002 10.3142 3.11439 10.5258 3.48181 10.6855C4.7272 11.2166 5.25698 12.607 5.95124 12.607C6.52373 12.5789 6.50878 11.8989 6.4981 11.2166Z" fill="#3AA4AF"/>
<path d="M3.7189 12.3779C2.92215 11.4086 2.37745 11.2251 1.93101 11.482C1.35214 11.8101 0.739088 12.5895 0.326827 13.1293C-0.181557 13.8914 -0.102523 14.3858 0.598107 14.5995C0.76472 13.1811 3.44762 14.7809 5.2526 16.3979C5.80584 16.8945 6.26937 16.8578 6.39112 16.752C6.5321 16.6375 6.51501 16.4065 5.91051 15.4588C4.93432 13.9302 4.31914 13.1055 3.7189 12.3758V12.3779Z" fill="#3AA4AF"/>
<path d="M32.355 12.9522C32.9937 12.6326 32.8719 11.0933 32.7395 10.0657C32.6605 9.42013 32.355 9.38343 31.8018 9.7742C30.3129 10.8191 27.4549 12.6089 26.0622 13.1853C25.8614 13.2738 25.0903 13.5783 24.6908 13.9777C24.4622 14.2065 24.3982 14.8456 25.1244 14.7873C26.9871 14.6361 30.5415 13.8395 32.355 12.9543V12.9522Z" fill="#3AA4AF"/>
<path d="M15.4737 14.5989C16.6934 15.5446 20.5938 15.6007 21.6149 15.2898C22.2322 15.1192 22.2856 14.5946 22.3198 14.2103C22.3283 14.1196 22.2279 14.0333 22.0869 14.0592C19.9594 14.45 17.4282 14.4823 15.3797 13.9318C15.0892 13.8541 15.0828 14.2988 15.4715 14.6011L15.4737 14.5989Z" fill="#3AA4AF"/>
</g>
<defs>
<clipPath id="clip0_265_1537">
<rect width="160" height="37" fill="white"/>
</clipPath>
</defs>
</svg>
