<svg width="294" height="67" viewBox="0 0 294 67" fill="none" xmlns="http://www.w3.org/2000/svg">
<g clip-path="url(#clip0_265_1305)">
<path d="M108.778 26.4356V36.35C107.369 36.8582 104.61 37.4837 102.09 37.4837C97.0816 37.4837 94.3537 35.6033 94.3537 32.1669V32.1356C94.3537 28.7618 97.0227 26.85 101.882 26.85C103.11 26.85 104.939 27.0299 106.71 27.2684V26.4904C106.71 23.832 105.151 22.19 101.191 22.19C99.5111 22.19 97.3838 22.5497 95.6725 23.3863L96.0336 21.4746C97.5643 20.7279 99.6328 20.3408 101.67 20.3408C106.317 20.3408 108.778 22.4011 108.778 26.4356ZM106.71 34.8879V29.184C106.141 29.0628 103.589 28.7344 102.062 28.7344C98.314 28.7344 96.485 29.8408 96.485 32.1082C96.485 34.3757 98.314 35.572 102.062 35.572C103.354 35.572 105.422 35.3023 106.71 34.8839V34.8879Z" fill="white"/>
<path d="M134.777 20.8217L130.248 37.1905H127.548L123.171 22.8546L118.763 37.1905H116.094L111.506 20.8217H113.724L117.562 34.9504L121.88 20.8217H124.427L128.745 34.8878L132.583 20.8217H134.774H134.777Z" fill="white"/>
<path d="M151.926 21.2986V43.7896H149.826V37.2179C148.535 37.4876 147.188 37.6362 146.019 37.6362C140.143 37.6362 136.724 34.2897 136.724 29.0628V29.0315C136.724 23.5974 140.441 20.4894 146.019 20.4894C147.699 20.4894 149.708 20.7865 151.537 21.2947H151.926V21.2986ZM149.83 35.3062V22.9093C148.331 22.5497 147.102 22.4011 145.932 22.4011C141.344 22.4011 138.765 25.0908 138.765 29.0315V29.0628C138.765 33.2733 141.583 35.7245 145.932 35.7245C147.071 35.7245 148.543 35.6033 149.83 35.3062Z" fill="white"/>
<path d="M170.636 26.4356V36.35C169.227 36.8582 166.468 37.4837 163.948 37.4837C158.94 37.4837 156.212 35.6033 156.212 32.1669V32.1356C156.212 28.7618 158.881 26.85 163.74 26.85C164.969 26.85 166.798 27.0299 168.568 27.2684V26.4904C168.568 23.832 167.01 22.19 163.049 22.19C161.37 22.19 159.242 22.5497 157.531 23.3863L157.892 21.4746C159.423 20.7279 161.491 20.3408 163.528 20.3408C168.176 20.3408 170.636 22.4011 170.636 26.4356ZM168.568 34.8879V29.184C167.999 29.0628 165.448 28.7344 163.921 28.7344C160.172 28.7344 158.343 29.8408 158.343 32.1082C158.343 34.3757 160.172 35.572 163.921 35.572C165.212 35.572 167.281 35.3023 168.568 34.8839V34.8879Z" fill="white"/>
<path d="M177.804 22.792H174.475V20.8217H177.804V18.4017C177.804 14.1014 179.931 12.9676 184.072 12.9676H186.682V14.7581H184.162C181.344 14.7581 179.903 15.7433 179.903 18.7888V20.8178H186.619V22.7881H179.903V37.1827H177.804V22.7881V22.792Z" fill="white"/>
<path d="M194.956 28.9455V28.9142C195.015 23.7772 198.406 20.3721 203.442 20.3721C205.479 20.3721 207.312 20.7591 208.898 21.5371L208.058 23.3003C206.68 22.6122 205.208 22.3151 203.469 22.3151C199.631 22.3151 197.111 24.9149 197.052 28.9142V28.9455C197.111 32.9488 199.631 35.5759 203.501 35.5759C205.208 35.5759 206.77 35.2475 208.058 34.5595L208.898 36.3226C207.308 37.1006 205.479 37.5189 203.442 37.5189C198.316 37.5189 195.015 34.1451 194.956 28.9455Z" fill="white"/>
<path d="M225.783 26.4356V36.35C224.374 36.8582 221.615 37.4837 219.095 37.4837C214.087 37.4837 211.359 35.6033 211.359 32.1669V32.1356C211.359 28.7618 214.028 26.85 218.887 26.85C220.115 26.85 221.944 27.0299 223.715 27.2684V26.4904C223.715 23.832 222.156 22.19 218.196 22.19C216.516 22.19 214.389 22.5497 212.677 23.3863L213.039 21.4746C214.569 20.7279 216.638 20.3408 218.675 20.3408C223.322 20.3408 225.783 22.4011 225.783 26.4356ZM223.715 34.8879V29.184C223.145 29.0628 220.594 28.7344 219.067 28.7344C215.319 28.7344 213.49 29.8408 213.49 32.1082C213.49 34.3757 215.319 35.572 219.067 35.572C220.359 35.572 222.427 35.3023 223.715 34.8839V34.8879Z" fill="white"/>
<path d="M246.621 29.0354V29.0667C246.621 34.2936 243.202 37.6401 237.327 37.6401C236.157 37.6401 234.807 37.4915 233.519 37.2218V43.7936H231.419V21.3025H231.808C233.637 20.7943 235.647 20.4972 237.327 20.4972C242.904 20.4972 246.621 23.6052 246.621 29.0393V29.0354ZM244.584 29.0354C244.584 25.0947 242.005 22.405 237.417 22.405C236.247 22.405 235.019 22.5536 233.519 22.9132V35.3101C234.811 35.6072 236.279 35.7284 237.417 35.7284C241.766 35.7284 244.584 33.2811 244.584 29.0667V29.0354Z" fill="white"/>
<path d="M250.189 16.7598C250.189 15.7746 250.997 15.0865 251.987 15.0865C252.976 15.0865 253.757 15.7746 253.757 16.7598C253.757 17.8349 252.917 18.433 251.987 18.433C251.056 18.433 250.189 17.8349 250.189 16.7598ZM250.939 20.8217H253.039V37.1905H250.939V20.8217Z" fill="white"/>
<path d="M260.115 32.0809V22.7334H256.787V20.8217H260.115V14.7894H262.184V20.8217H268.9V22.7334H262.184V31.4554C262.184 34.4422 263.652 35.2475 266.411 35.2475H268.931V37.1905H265.783C261.375 37.1905 260.115 35.4586 260.115 32.0848V32.0809Z" fill="white"/>
<path d="M286.264 26.4356V36.35C284.855 36.8582 282.095 37.4837 279.576 37.4837C274.567 37.4837 271.839 35.6033 271.839 32.1669V32.1356C271.839 28.7618 274.508 26.85 279.368 26.85C280.596 26.85 282.425 27.0299 284.195 27.2684V26.4904C284.195 23.832 282.637 22.19 278.677 22.19C276.997 22.19 274.869 22.5497 273.158 23.3863L273.519 21.4746C275.05 20.7279 277.118 20.3408 279.156 20.3408C283.803 20.3408 286.264 22.4011 286.264 26.4356ZM284.195 34.8879V29.184C283.626 29.0628 281.075 28.7344 279.548 28.7344C275.8 28.7344 273.971 29.8408 273.971 32.1082C273.971 34.3757 275.8 35.572 279.548 35.572C280.839 35.572 282.908 35.3023 284.195 34.8839V34.8879Z" fill="white"/>
<path d="M291.9 12.9637H294V37.1866H291.9V12.9637Z" fill="white"/>
<path d="M163.897 50.0291C164.113 50.0291 164.298 49.9587 164.443 49.818C164.588 49.6773 164.663 49.4935 164.663 49.2668C164.663 49.04 164.588 48.8563 164.443 48.7155C164.298 48.5748 164.113 48.5044 163.897 48.5044C163.681 48.5044 163.497 48.5748 163.352 48.7155C163.206 48.8563 163.132 49.04 163.132 49.2668C163.132 49.4935 163.206 49.6773 163.352 49.818C163.497 49.9587 163.681 50.0291 163.897 50.0291Z" fill="white"/>
<path d="M162.041 50.2832C162.257 50.2832 162.441 50.2129 162.586 50.0721C162.732 49.9314 162.806 49.7476 162.806 49.5209C162.806 49.2941 162.732 49.1104 162.586 48.9697C162.441 48.8289 162.257 48.7585 162.041 48.7585C161.825 48.7585 161.64 48.8289 161.495 48.9697C161.35 49.1104 161.275 49.2941 161.275 49.5209C161.275 49.7476 161.35 49.9314 161.495 50.0721C161.64 50.2129 161.825 50.2832 162.041 50.2832Z" fill="white"/>
<path d="M165.656 60.2328C165.44 60.2328 165.255 60.3031 165.11 60.4439C164.965 60.5846 164.89 60.7683 164.89 60.9951C164.89 61.2218 164.965 61.4056 165.11 61.5463C165.255 61.6871 165.44 61.7574 165.656 61.7574C165.872 61.7574 166.056 61.6871 166.201 61.5463C166.347 61.4056 166.421 61.2218 166.421 60.9951C166.421 60.7683 166.347 60.5846 166.201 60.4439C166.056 60.3031 165.872 60.2328 165.656 60.2328Z" fill="white"/>
<path d="M167.512 59.9786C167.292 59.9786 167.112 60.049 166.967 60.1898C166.817 60.3305 166.747 60.5142 166.747 60.741C166.747 60.9677 166.821 61.1515 166.967 61.2922C167.112 61.4329 167.296 61.5033 167.512 61.5033C167.728 61.5033 167.913 61.4329 168.058 61.2922C168.203 61.1515 168.278 60.9677 168.278 60.741C168.278 60.5142 168.203 60.3305 168.058 60.1898C167.913 60.049 167.728 59.9786 167.512 59.9786Z" fill="white"/>
<path d="M171.241 60.178C171.021 60.178 170.841 60.2484 170.695 60.3891C170.55 60.5299 170.476 60.7136 170.476 60.9404C170.476 61.1671 170.55 61.3509 170.695 61.4916C170.841 61.6323 171.025 61.7027 171.241 61.7027C171.457 61.7027 171.641 61.6323 171.787 61.4916C171.932 61.3509 172.006 61.1671 172.006 60.9404C172.006 60.7136 171.932 60.5299 171.787 60.3891C171.641 60.2484 171.457 60.178 171.241 60.178Z" fill="white"/>
<path d="M172.226 56.8706C172.222 56.6243 172.218 56.4093 172.218 56.2217V51.5303H172.104L170.911 51.6984V56.3898C170.911 56.683 170.931 56.9488 170.966 57.1873C170.982 57.285 170.998 57.371 171.013 57.4492H167.92V51.5264H167.807L166.613 51.6945V56.3859C166.613 56.6791 166.633 56.9449 166.672 57.1834C166.688 57.2811 166.704 57.3671 166.719 57.4453H165.122H163.638V51.5225H163.524L162.331 51.6906V56.382C162.331 56.6752 162.351 56.941 162.386 57.1795C162.402 57.2772 162.417 57.3632 162.433 57.4414H160.53H159.356V50.1073C159.356 49.9196 159.356 49.6929 159.364 49.4271C159.368 49.1651 159.38 48.9032 159.391 48.6491C159.407 48.395 159.431 48.1839 159.47 48.0118V47.8985L158.049 48.0666V58.6377H164.835H169.734H170.024C170.621 58.6377 170.825 58.6103 171.257 58.5517C171.688 58.497 172.046 58.411 172.328 58.2976V58.1842C172.289 58.0161 172.265 57.8128 172.25 57.5782C172.234 57.3437 172.226 57.1013 172.222 56.8589L172.226 56.8706Z" fill="white"/>
<path d="M191.745 53.7392C191.506 53.4069 191.266 53.1293 191.027 52.9143H190.858C190.576 52.9886 190.234 53.0355 189.846 53.055C189.453 53.0746 189.072 53.0824 188.703 53.0824H179.472L183.723 49.0674L183.142 48.1917H183.028L177.749 53.2505C177.768 53.6571 177.87 53.9268 178.063 54.0715C178.251 54.2122 178.451 54.2826 178.659 54.2826H188.703C189.045 54.2826 189.32 54.2787 189.528 54.2669C189.736 54.2591 189.936 54.2396 190.132 54.2161C190.234 54.2044 190.356 54.1848 190.485 54.1614C190.705 54.4194 190.886 54.697 191.019 54.998C191.219 55.4398 191.317 55.8425 191.317 56.1982C191.317 56.6713 191.176 56.9957 190.897 57.1717C190.619 57.3515 190.195 57.4414 189.626 57.4414H175.637C175.637 57.4414 175.637 49.7906 175.645 49.4271C175.649 49.1651 175.661 48.9032 175.672 48.6491C175.688 48.395 175.712 48.1839 175.751 48.0118V47.8985L174.33 48.0666V58.6377H189.327C189.924 58.6377 190.43 58.5752 190.846 58.454C191.263 58.3328 191.604 58.1568 191.867 57.9223C192.134 57.6916 192.322 57.4219 192.44 57.1169C192.558 56.812 192.617 56.4758 192.617 56.1083C192.617 55.6665 192.53 55.2404 192.362 54.8377C192.193 54.4311 191.985 54.0637 191.745 53.7274V53.7392Z" fill="white"/>
<path d="M154.634 56.8315L154.701 57.461C154.057 57.4414 148.048 57.418 147.467 57.3554C146.886 57.2929 146.368 57.199 145.913 57.0661C145.807 57.027 145.662 56.9801 145.473 56.9254C145.285 56.8706 145.096 56.8081 144.904 56.7416C144.716 56.6752 144.57 56.6204 144.464 56.5735H144.351L144.095 57.719C144.217 57.7737 144.355 57.8285 144.5 57.8793C144.645 57.9301 144.806 57.9848 144.975 58.0357C145.143 58.0865 145.32 58.1412 145.501 58.1998C146.38 58.4383 147.302 58.5791 148.272 58.626C148.754 58.6455 152.683 58.7433 154.603 58.6533H155.937V50.119C155.937 49.9314 155.937 49.7046 155.945 49.4388C155.949 49.1769 155.961 48.9149 155.973 48.6608C155.988 48.4067 156.012 48.1956 156.051 48.0236V47.9102L154.63 48.0783V56.8315H154.634Z" fill="white"/>
<path d="M212.234 50.0057C212.45 50.0057 212.634 49.9353 212.78 49.7946C212.925 49.6538 212.999 49.4701 212.999 49.2433C212.999 49.0166 212.925 48.8328 212.78 48.6921C212.634 48.5514 212.45 48.481 212.234 48.481C212.018 48.481 211.834 48.5514 211.688 48.6921C211.543 48.8328 211.469 49.0166 211.469 49.2433C211.469 49.4701 211.543 49.6538 211.688 49.7946C211.834 49.9353 212.018 50.0057 212.234 50.0057Z" fill="white"/>
<path d="M213.619 51.4522C213.227 51.3896 212.823 51.3622 212.407 51.3622C211.614 51.3622 210.931 51.5069 210.362 51.7923C209.793 52.0816 209.361 52.4725 209.055 52.9729C208.752 53.4733 208.599 54.048 208.599 54.697C208.599 55.346 208.776 55.948 209.125 56.4719C209.384 56.8589 209.694 57.1873 210.048 57.4531C210.048 57.4531 203.301 57.4453 202.657 57.4336C202.013 57.418 201.401 57.3828 200.82 57.3202C200.239 57.2577 199.721 57.1638 199.266 57.0309C199.16 56.9918 199.014 56.9449 198.826 56.8902C198.638 56.8355 198.449 56.7729 198.257 56.7064C198.068 56.64 197.919 56.5852 197.817 56.5383H197.703L197.448 57.6838C197.57 57.7385 197.707 57.7933 197.853 57.848C197.998 57.8988 198.159 57.9535 198.328 58.0044C198.496 58.0552 198.673 58.1099 198.853 58.1686C199.752 58.4149 200.698 58.5556 201.691 58.5986C202.684 58.6416 203.654 58.6612 204.6 58.6612H212.344C212.94 58.6612 213.455 58.6338 213.882 58.5752C214.314 58.5204 214.671 58.4344 214.954 58.321L215.009 58.2077V54.1927C215.009 54.005 215.009 53.7626 215.017 53.4733C215.021 53.1801 215.032 52.8947 215.044 52.6093C215.06 52.3279 215.083 52.1011 215.123 51.9291L215.068 51.8157C214.491 51.6359 214.004 51.5186 213.612 51.4561L213.619 51.4522ZM211.873 57.1326C211.233 56.8824 210.746 56.5344 210.413 56.0887C210.075 55.6431 209.91 55.1427 209.91 54.5993C209.91 53.9777 210.126 53.4694 210.558 53.0785C210.99 52.6875 211.571 52.4921 212.308 52.4921C212.611 52.4921 212.854 52.5077 213.039 52.5351C213.223 52.5624 213.392 52.6015 213.541 52.6484C213.616 52.6719 213.69 52.6954 213.773 52.7188C213.761 52.8009 213.749 52.8908 213.741 52.9886C213.721 53.1958 213.714 53.4264 213.714 53.6805V57.4453C213.011 57.4375 212.399 57.3398 211.877 57.1365L211.873 57.1326Z" fill="white"/>
<path d="M231.416 51.4522C231.023 51.3896 230.619 51.3622 230.203 51.3622C229.41 51.3622 228.727 51.5069 228.158 51.7923C227.589 52.0816 227.157 52.4725 226.851 52.9729C226.548 53.4733 226.395 54.048 226.395 54.697C226.395 55.346 226.572 55.948 226.921 56.4719C227.18 56.8589 227.49 57.1873 227.844 57.4531H218.526H218.428V50.119C218.428 49.9314 218.428 49.7046 218.435 49.4388C218.439 49.1769 218.451 48.9149 218.463 48.6608C218.479 48.4067 218.502 48.1956 218.541 48.0236V47.9102L217.121 48.0783V58.6494H230.14C230.736 58.6494 231.251 58.6221 231.678 58.5634C232.11 58.5087 232.467 58.4227 232.75 58.3093L232.805 58.1959V54.1809C232.805 53.9933 232.805 53.7509 232.813 53.4616C232.817 53.1684 232.828 52.883 232.84 52.5976C232.856 52.3161 232.88 52.0894 232.919 51.9174L232.864 51.804C232.287 51.6242 231.8 51.5069 231.408 51.4443L231.416 51.4522ZM229.669 57.1326C229.029 56.8824 228.542 56.5344 228.209 56.0888C227.871 55.6431 227.706 55.1427 227.706 54.5993C227.706 53.9777 227.922 53.4694 228.354 53.0785C228.786 52.6875 229.367 52.4921 230.105 52.4921C230.407 52.4921 230.65 52.5077 230.835 52.5351C231.019 52.5624 231.188 52.6015 231.337 52.6484C231.408 52.6719 231.486 52.6954 231.569 52.7188C231.557 52.8009 231.545 52.8908 231.537 52.9886C231.518 53.1958 231.51 53.4264 231.51 53.6805V57.4453C230.807 57.4375 230.195 57.3398 229.673 57.1365L229.669 57.1326Z" fill="white"/>
<path d="M229.28 50.033C229.496 50.033 229.681 49.9627 229.826 49.8219C229.971 49.6812 230.046 49.4974 230.046 49.2707C230.046 49.0439 229.971 48.8602 229.826 48.7194C229.681 48.5787 229.496 48.5083 229.28 48.5083C229.064 48.5083 228.88 48.5787 228.735 48.7194C228.59 48.8602 228.515 49.0439 228.515 49.2707C228.515 49.4974 228.59 49.6812 228.735 49.8219C228.88 49.9627 229.064 50.033 229.28 50.033Z" fill="white"/>
<path d="M231.137 49.7789C231.353 49.7789 231.537 49.7085 231.682 49.5678C231.828 49.4271 231.902 49.2433 231.902 49.0166C231.902 48.7898 231.828 48.6061 231.682 48.4653C231.537 48.3246 231.353 48.2542 231.137 48.2542C230.921 48.2542 230.736 48.3246 230.591 48.4653C230.446 48.6061 230.371 48.7898 230.371 49.0166C230.371 49.2433 230.446 49.4271 230.591 49.5678C230.736 49.7085 230.921 49.7789 231.137 49.7789Z" fill="white"/>
<path d="M241.75 56.3507C241.75 56.3507 241.75 56.3155 241.75 56.2959C241.735 55.7408 241.637 55.213 241.452 54.7165C241.248 54.1731 240.973 53.6962 240.624 53.2739C240.275 52.8556 239.878 52.5233 239.439 52.2849C238.999 52.0464 238.544 51.9252 238.069 51.9252C237.672 51.9252 237.276 52.019 236.875 52.1989C236.479 52.3826 236.118 52.6367 235.788 52.9612C235.462 53.2857 235.203 53.6649 235.007 54.091C234.815 54.5211 234.716 54.9824 234.716 55.4828C234.716 56.1982 234.893 56.7924 235.242 57.2616C235.592 57.7346 236.055 58.0826 236.632 58.3054C237.209 58.5321 237.837 58.6455 238.52 58.6455C238.795 58.6455 239.117 58.626 239.486 58.5908C239.784 58.5595 240.07 58.497 240.349 58.4188V58.4266C240.349 58.4579 240.341 58.4931 240.337 58.5282C240.267 59.013 240.153 59.4704 239.992 59.9005C239.945 60.006 239.898 60.0998 239.851 60.1624C239.584 60.5064 237.617 62.1523 237.554 62.1875L237.543 62.336L238.131 63.2117C238.131 63.2117 238.014 63.3095 240.275 61.4251C241.24 60.6198 241.754 59.0208 241.754 56.5501C241.754 56.511 241.754 56.4758 241.754 56.4367C241.754 56.4054 241.754 56.3741 241.75 56.3389V56.3507ZM239.682 57.3945C239.34 57.4336 239.05 57.4492 238.803 57.4492C238.226 57.4492 237.731 57.371 237.315 57.2108C236.899 57.0505 236.581 56.8237 236.357 56.5266C236.133 56.2295 236.024 55.8737 236.024 55.4593C236.024 54.912 236.212 54.3725 236.585 53.8408C236.867 53.4421 237.272 53.1098 237.798 52.8439C238.226 52.969 238.595 53.1449 238.905 53.3795C239.274 53.661 239.572 53.9933 239.8 54.3686C240.027 54.7439 240.192 55.1427 240.294 55.561C240.4 55.9793 240.451 56.3859 240.451 56.7846C240.451 56.9371 240.443 57.0817 240.436 57.2342C240.192 57.3085 239.941 57.3632 239.682 57.3945Z" fill="white"/>
<path d="M244.207 46.4481C244.407 46.2917 244.682 46.2135 245.032 46.2135H245.569L245.754 45.3378V45.2244H245.185C244.749 45.2244 244.372 45.3026 244.058 45.459C243.74 45.6154 243.497 45.8186 243.328 46.0728C243.159 46.3269 243.073 46.6044 243.073 46.9055C243.073 47.14 243.136 47.3707 243.265 47.5896C243.395 47.8125 243.587 47.9962 243.846 48.1409C244.105 48.2855 244.427 48.3598 244.804 48.3598H245.569L245.726 47.4684V47.3707H245.032C244.796 47.3707 244.564 47.3433 244.337 47.2847C244.16 47.2417 244.007 47.1322 243.881 46.9641C243.936 46.7491 244.042 46.5732 244.207 46.4402V46.4481Z" fill="white"/>
<path d="M243.968 58.6533H245.275V51.5303C245.275 51.3427 245.275 51.1159 245.283 50.8501C245.287 50.5882 245.298 50.3262 245.31 50.0721C245.326 49.818 245.349 49.6069 245.389 49.4349V49.3215L243.968 49.4896V58.6455V58.6533Z" fill="white"/>
<path d="M78.2728 1.13374C78.5751 3.20183 77.8607 7.44358 74.6893 11.1966C74.1437 11.8417 69.3159 17.0334 68.2797 18.0655C65.5008 20.8256 64.8964 19.7661 64.9631 17.5338C65.0455 14.9653 65.2182 12.2952 66.7176 10.9894C67.1258 10.6376 67.9265 9.91825 68.3425 9.57813C74.234 4.74997 76.1887 2.1111 76.9266 0.789707C77.845 -0.860077 78.1826 0.496499 78.2728 1.13765V1.13374Z" fill="white"/>
<path d="M74.285 24.5122C77.5389 21.0054 78.0334 15.669 77.6998 12.7995C77.4878 10.9738 76.1376 12.9598 75.4782 13.9059C72.8916 17.612 69.5475 20.7787 68.7311 21.4941C66.4938 23.4488 65.5754 24.5122 65.1554 25.9509C64.865 27.1862 64.3665 29.1097 64.1231 30.2825C63.9622 31.1152 64.1074 31.8111 65.9129 30.7634C68.1738 29.4498 72.5776 26.3496 74.2889 24.5083L74.285 24.5122Z" fill="white"/>
<path d="M57.588 33.4374C59.0599 32.4405 59.4367 30.7673 59.5191 30.5288C60.0215 29.0862 60.3198 26.5373 60.3237 26.5138C60.4493 25.4661 58.2631 26.3184 57.2975 26.7601C50.7859 29.7078 45.0515 28.6327 44.5726 30.8807C44.4784 31.3303 44.027 34.2506 43.8975 34.9387C43.7994 35.4195 43.6345 36.7214 45.652 36.4477C48.0148 36.1232 54.6324 35.443 57.588 33.4374Z" fill="white"/>
<path d="M39.8822 31.8424C40.0156 31.2442 40.2158 30.65 38.2886 30.4467C37.7234 30.3881 35.1172 30.1731 33.6179 29.9346C31.5258 29.6296 28.9471 29.0667 28.9 30.3842C28.9 30.3842 28.8136 33.543 29.159 34.6846C29.2101 34.8566 29.4495 35.0364 29.7085 35.1185C36.4399 36.8973 38.7008 36.995 39.1443 35.0403C39.525 33.3671 39.6231 33.027 39.8861 31.8463L39.8822 31.8424Z" fill="white"/>
<path d="M24.6099 34.0004C24.9004 34.063 24.9082 33.9183 24.8729 33.6525C24.6727 32.1434 24.449 30.8299 24.3234 29.7235C24.0486 27.2644 21.5131 26.7679 20.9911 26.635C17.7765 25.814 14.3695 25.0517 13.455 24.8484C11.4179 24.391 11.7437 25.5756 12.4541 26.549C14.2282 28.9768 14.5658 29.8212 16.9012 31.5531C18.8048 32.9644 24.6099 34.0004 24.6099 34.0004Z" fill="white"/>
<path d="M71.145 36.1858C73.5079 33.6407 74.4499 30.4154 74.9287 29.1488C75.4311 27.8235 75.2035 27.3153 73.5903 28.6523C72.7386 29.3599 71.8672 29.8877 71.0783 30.4467C65.6774 34.2936 61.5719 34.5165 59.9116 38.7426C58.7812 41.616 57.8588 43.5942 60.1785 42.9687C60.3944 42.91 66.3682 41.3306 71.1411 36.1897L71.145 36.1858Z" fill="white"/>
<path d="M56.0376 38.6761C56.12 38.4845 56.3908 37.6753 55.6529 37.859C51.2098 38.9693 50.0833 39.1491 45.2791 39.6378C43.1046 39.8607 42.3942 40.1851 42.1705 40.9045C41.8094 42.0773 42.3471 43.8444 43.0418 45.2948C43.2028 45.631 43.45 45.9985 44.0388 46.0141C52.5011 46.2839 53.3293 45.3652 54.1536 43.2306C54.5971 42.0812 55.3311 40.2008 56.0376 38.6761Z" fill="white"/>
<path d="M25.0652 38.4064C25.0024 38.2304 24.7905 38.0506 24.5824 37.988C23.036 37.5228 21.1049 36.3343 19.0599 34.7315C18.6753 34.4265 18.3338 34.6377 18.5772 35.0364C20.0922 37.5228 22.2196 40.0249 26.0347 42.3666C26.4037 42.5895 26.7334 42.4487 26.6078 42.1438C26.6078 42.1438 25.7521 40.279 25.0691 38.4024L25.0652 38.4064Z" fill="white"/>
<path d="M39.0148 47.1635C39.3209 47.1635 39.419 46.9797 39.2738 46.7608C37.6999 44.3839 37.221 43.7388 37.4212 40.8067C37.4369 40.5917 37.1975 40.3259 36.8246 40.279C34.344 39.9584 31.9301 39.5401 29.5947 39.0905C29.371 39.0436 29.2258 39.1218 29.2258 39.2821C29.3082 44.0789 33.2685 47.1283 39.0187 47.1596L39.0148 47.1635Z" fill="white"/>
<path d="M66.6508 44.4191C66.7647 43.7427 66.5213 43.4261 65.7481 43.602C65.3948 43.6841 60.0333 46.0923 57.0345 47.3394C56.3791 47.6131 56.1318 47.7734 56.1632 48.4927C56.1867 49.0244 56.4576 52.8517 58.53 53.4342C58.8008 53.5124 59.0245 53.4381 59.1737 53.4108C62.6159 52.7462 64.288 51.9056 65.179 51.1394C66.0974 50.338 66.1249 49.5991 66.1759 48.6999C66.2387 47.6209 66.3525 45.8773 66.643 44.4191H66.6508Z" fill="white"/>
<path d="M51.4963 48.8328C51.516 48.5318 51.2216 48.4145 50.9154 48.4653C48.3877 48.8172 45.8208 48.9697 43.2656 49.1417C42.9712 49.1612 42.9123 49.3059 43.0222 49.5248C43.297 50.0604 44.3292 52.4295 46.5155 53.5984C48.9647 54.9472 52.4933 54.9316 53.2979 54.9785C53.6512 55.0097 53.7807 54.7869 53.5727 54.5289C52.615 53.3521 51.359 50.7915 51.4963 48.8328Z" fill="white"/>
<path d="M42.1548 53.9151C41.4129 52.9065 40.7221 51.8783 40.0784 50.8501C39.9646 50.6742 39.7095 50.5295 39.4504 50.4982C37.904 50.3223 35.859 49.5678 33.5864 48.3989C33.088 48.1409 32.668 48.3989 33.0055 48.782C34.7954 50.8032 37.3859 52.7305 41.5582 54.2357C42.0252 54.4116 42.3824 54.2044 42.1548 53.8995V53.9151Z" fill="white"/>
<path d="M61.9801 61.8083C62.4001 61.7535 62.2862 61.3587 61.7878 61.1515C60.049 60.4478 58.6988 59.5017 57.1484 58.1686C56.9678 58.0122 56.6813 57.8793 56.4065 57.8793C53.3293 57.8793 49.6634 57.59 48.2582 57.156C47.5046 56.9254 47.1788 57.3476 47.8068 57.7151C48.4819 58.1178 51.3472 59.9122 54.6835 60.8935C57.8549 61.8395 59.9351 62.0702 61.9801 61.8083Z" fill="white"/>
<path d="M73.7552 59.0834C71.2745 57.2225 69.7085 54.9394 69.0216 53.4694C68.8685 53.1449 68.633 53.1645 68.3936 53.2779C66.541 54.048 64.5588 54.6735 62.5139 55.1857C60.5317 55.6665 61.4816 57.7151 65.1083 59.7245C66.0072 60.2249 69.7163 60.2249 73.7081 59.5642C73.9985 59.5173 74.0142 59.275 73.7552 59.0834Z" fill="white"/>
<path d="M82.0016 66.2846C80.0038 64.971 78.634 64.4354 76.1062 62.9146C75.8354 62.7504 75.5175 62.7739 75.3016 62.8013C71.357 63.3056 69.7791 63.2117 66.4114 63.1531C65.9601 63.1453 65.8659 63.3603 66.172 63.6027C68.4878 65.4323 75.7687 67.7428 82.1155 66.7615C82.3784 66.7224 82.3235 66.4879 82.0016 66.2807V66.2846Z" fill="white"/>
<path d="M13.9849 18.9452C13.5649 19.3322 13.6787 20.1023 13.9025 21.3377C14.032 22.0923 14.6286 22.6239 15.6098 22.878C16.8148 23.1869 19.2287 23.6013 20.4886 23.8437C22.3059 24.1916 22.4472 23.8554 20.1982 22.0453C17.9492 20.2353 14.8327 18.1633 13.981 18.9491L13.9849 18.9452Z" fill="white"/>
<path d="M11.9403 20.3095C11.9285 19.5277 11.9481 18.9373 11.9403 18.4799C11.9363 18.1554 11.8421 18.003 11.6027 17.9522C9.95801 17.5768 8.38007 17.6316 6.7197 18.2884C5.76979 18.6754 5.72269 19.0585 6.39783 19.3478C8.68624 20.3095 9.6597 22.8272 10.9354 22.8272C11.9874 22.7764 11.9599 21.5449 11.9403 20.3095Z" fill="white"/>
<path d="M6.83349 22.4128C5.36945 20.6575 4.36857 20.3252 3.54824 20.7904C2.48456 21.3846 1.35808 22.796 0.600548 23.7733C-0.333607 25.1533 -0.188382 26.0486 1.09903 26.4356C1.40518 23.8671 6.33501 26.764 9.65165 29.6922C10.6682 30.5914 11.52 30.5249 11.7437 30.3334C12.0027 30.1261 11.9713 29.7078 10.8606 27.9916C9.06683 25.2237 7.93642 23.7303 6.83349 22.4089V22.4128Z" fill="white"/>
<path d="M59.4524 23.4527C60.626 22.8741 60.4022 20.0867 60.1589 18.2258C60.0136 17.0569 59.4524 16.9904 58.4358 17.698C55.7 19.5902 50.4484 22.8311 47.8892 23.875C47.5203 24.0352 46.1034 24.5865 45.3694 25.3097C44.9494 25.7241 44.8317 26.8813 46.1662 26.7758C49.5888 26.5021 56.12 25.0595 59.4524 23.4566V23.4527Z" fill="white"/>
<path d="M28.4329 26.4356C30.6741 28.148 37.8412 28.2496 39.7173 27.6867C40.8517 27.3778 40.9498 26.4278 41.0126 25.7319C41.0283 25.5677 40.8438 25.4114 40.5848 25.4583C36.6754 26.1659 32.0243 26.2245 28.2602 25.2276C27.7264 25.0869 27.7146 25.8922 28.429 26.4395L28.4329 26.4356Z" fill="white"/>
</g>
<defs>
<clipPath id="clip0_265_1305">
<rect width="294" height="67" fill="white"/>
</clipPath>
</defs>
</svg>
