<svg width="1440" height="640" viewBox="0 0 1440 640" fill="none" xmlns="http://www.w3.org/2000/svg">
<rect width="1440" height="640" fill="#25686E"/>
<rect width="1440" height="640" fill="#25686E"/>
<mask id="mask0_524_981" style="mask-type:alpha" maskUnits="userSpaceOnUse" x="-517" y="224" width="560" height="665">
<path d="M-60.6738 606.276C38.9581 524.385 57.8194 468.401 31.4136 422.516C-2.31476 363.019 -82.4197 300.009 -137.894 257.637C-216.224 205.385 -267.038 213.508 -289.006 285.519C-143.22 302.644 -307.646 578.394 -473.847 763.91C-524.883 820.772 -521.111 868.414 -510.238 880.928C-498.477 895.418 -474.734 893.662 -377.321 831.53C-220.218 731.198 -135.453 667.968 -60.4519 606.276L-60.6738 606.276Z" fill="#3AA4AF"/>
</mask>
<g mask="url(#mask0_524_981)">
<rect y="-14.9995" width="1440" height="640" fill="#3AA5AF"/>
</g>
<mask id="mask1_524_981" style="mask-type:alpha" maskUnits="userSpaceOnUse" x="1069" y="239" width="528" height="726">
<path d="M1070.82 949.47C1067.27 965.716 1075.48 966.156 1090.57 964.18C1176.22 952.983 1250.78 940.469 1313.58 933.443C1453.15 918.075 1481.33 776.248 1488.88 747.049C1535.47 567.24 1578.74 376.675 1590.28 325.52C1616.24 211.576 1549.01 229.798 1493.76 269.536C1355.96 368.771 1308.03 387.652 1209.73 518.282C1129.62 624.762 1070.82 949.47 1070.82 949.47Z" fill="#3AA4AF"/>
</mask>
<g mask="url(#mask1_524_981)">
<rect x="-0.015625" y="0.000488281" width="1440" height="640" fill="#3AA5AF"/>
</g>
</svg>
